0
SECTION
2
HEADER
9
$INSUNITS
70
4
9
$ACADVER
1
AC1014
9
$HANDSEED
5
FFFF
0
ENDSEC
0
SECTION
2
TABLES
0
TABLE
2
VPORT
5
8
100
AcDbSymbolTable
0
ENDTAB
0
TABLE
2
LTYPE
5
5
100
AcDbSymbolTable
0
LTYPE
5
14
100
AcDbSymbolTableRecord
100
AcDbLinetypeTableRecord
2
BYBLOCK
70
0
0
LTYPE
5
15
100
AcDbSymbolTableRecord
100
AcDbLinetypeTableRecord
2
BYLAYER
70
0
0
LTYPE
5
16
100
AcDbSymbolTableRecord
100
AcDbLinetypeTableRecord
2
DASHED
70
0
3
Dashed __ __ __ __ __ __ __ __ __ __ __ __ __ _
72
65
73
2
40
0.75
49
0.5
74
0
49
-0.25
74
0
0
ENDTAB
0
TABLE
2
LAYER
5
2
100
AcDbSymbolTable
70
2
0
LAYER
5
50
100
AcDbSymbolTableRecord
100
AcDbLayerTableRecord
2
0
70
0
62
7
6
CONTINUOUS
0
ENDTAB
0
TABLE
2
STYLE
5
3
100
AcDbSymbolTable
70
1
0
STYLE
5
11
100
AcDbSymbolTableRecord
100
AcDbTextStyleTableRecord
2
STANDARD
70
0
0
ENDTAB
0
TABLE
2
VIEW
5
6
100
AcDbSymbolTable
70
0
0
ENDTAB
0
TABLE
2
UCS
5
7
100
AcDbSymbolTable
70
0
0
ENDTAB
0
TABLE
2
APPID
5
9
100
AcDbSymbolTable
70
2
0
APPID
5
12
100
AcDbSymbolTableRecord
100
AcDbRegAppTableRecord
2
ACAD
70
0
0
ENDTAB
0
TABLE
2
DIMSTYLE
5
A
100
AcDbSymbolTable
70
1
0
ENDTAB
0
TABLE
2
BLOCK_RECORD
5
1
100
AcDbSymbolTable
70
1
0
BLOCK_RECORD
5
1F
100
AcDbSymbolTableRecord
100
AcDbBlockTableRecord
2
*MODEL_SPACE
0
BLOCK_RECORD
5
1B
100
AcDbSymbolTableRecord
100
AcDbBlockTableRecord
2
*PAPER_SPACE
0
ENDTAB
0
ENDSEC
0
SECTION
2
BLOCKS
0
BLOCK
5
20
100
AcDbEntity
100
AcDbBlockBegin
2
*MODEL_SPACE
0
ENDBLK
5
21
100
AcDbEntity
100
AcDbBlockEnd
0
BLOCK
5
1C
100
AcDbEntity
100
AcDbBlockBegin
2
*PAPER_SPACE
0
ENDBLK
5
1D
100
AcDbEntity
100
AcDbBlockEnd
0
ENDSEC
0
SECTION
2
ENTITIES
0
LINE
5
100
100
AcDbEntity
8
0
100
AcDbLine
10
0
20
0
30
0
11
180
21
0
31
0
0
LINE
5
101
100
AcDbEntity
8
0
100
AcDbLine
10
180
20
0
30
0
11
180
21
290
31
0
0
LINE
5
102
100
AcDbEntity
8
0
100
AcDbLine
10
180
20
290
30
0
11
0
21
290
31
0
0
LINE
5
103
100
AcDbEntity
8
0
100
AcDbLine
10
0
20
290
30
0
11
0
21
0
31
0
0
LINE
5
104
100
AcDbEntity
8
0
100
AcDbLine
10
300
20
290
30
0
11
300
21
0
31
0
0
LINE
5
105
100
AcDbEntity
8
0
100
AcDbLine
10
0
20
290
30
0
11
180
21
290
31
0
0
LINE
5
106
100
AcDbEntity
8
0
100
AcDbLine
10
180
20
410
30
0
11
0
21
410
31
0
0
LINE
5
107
100
AcDbEntity
8
0
100
AcDbLine
10
190.30000000000001
20
290
30
0
11
190.30000000000001
21
294
31
0
0
LINE
5
108
100
AcDbEntity
8
0
100
AcDbLine
10
190.30000000000001
20
294
30
0
11
180
21
294
31
0
0
LINE
5
109
100
AcDbEntity
8
0
100
AcDbLine
10
180
20
294
30
0
11
180
21
290
31
0
0
LINE
5
110
100
AcDbEntity
8
0
100
AcDbLine
10
190.30000000000001
20
290
30
0
11
200
21
290
31
0
0
LINE
5
111
100
AcDbEntity
8
0
100
AcDbLine
10
210.30000000000001
20
290
30
0
11
210.30000000000001
21
294
31
0
0
LINE
5
112
100
AcDbEntity
8
0
100
AcDbLine
10
210.30000000000001
20
294
30
0
11
200
21
294
31
0
0
LINE
5
113
100
AcDbEntity
8
0
100
AcDbLine
10
200
20
294
30
0
11
200
21
290
31
0
0
LINE
5
114
100
AcDbEntity
8
0
100
AcDbLine
10
210.30000000000001
20
290
30
0
11
220
21
290
31
0
0
LINE
5
115
100
AcDbEntity
8
0
100
AcDbLine
10
230.30000000000001
20
290
30
0
11
230.30000000000001
21
294
31
0
0
LINE
5
116
100
AcDbEntity
8
0
100
AcDbLine
10
230.30000000000001
20
294
30
0
11
220
21
294
31
0
0
LINE
5
117
100
AcDbEntity
8
0
100
AcDbLine
10
220
20
294
30
0
11
220
21
290
31
0
0
LINE
5
118
100
AcDbEntity
8
0
100
AcDbLine
10
230.30000000000001
20
290
30
0
11
240
21
290
31
0
0
LINE
5
119
100
AcDbEntity
8
0
100
AcDbLine
10
250.30000000000001
20
290
30
0
11
250.30000000000001
21
294
31
0
0
LINE
5
120
100
AcDbEntity
8
0
100
AcDbLine
10
250.30000000000001
20
294
30
0
11
240
21
294
31
0
0
LINE
5
121
100
AcDbEntity
8
0
100
AcDbLine
10
240
20
294
30
0
11
240
21
290
31
0
0
LINE
5
122
100
AcDbEntity
8
0
100
AcDbLine
10
250.30000000000001
20
290
30
0
11
260
21
290
31
0
0
LINE
5
123
100
AcDbEntity
8
0
100
AcDbLine
10
270.30000000000001
20
290
30
0
11
270.30000000000001
21
294
31
0
0
LINE
5
124
100
AcDbEntity
8
0
100
AcDbLine
10
270.30000000000001
20
294
30
0
11
260
21
294
31
0
0
LINE
5
125
100
AcDbEntity
8
0
100
AcDbLine
10
260
20
294
30
0
11
260
21
290
31
0
0
LINE
5
126
100
AcDbEntity
8
0
100
AcDbLine
10
270.30000000000001
20
290
30
0
11
280
21
290
31
0
0
LINE
5
127
100
AcDbEntity
8
0
100
AcDbLine
10
290.30000000000001
20
290
30
0
11
290.30000000000001
21
294
31
0
0
LINE
5
128
100
AcDbEntity
8
0
100
AcDbLine
10
290.30000000000001
20
294
30
0
11
280
21
294
31
0
0
LINE
5
129
100
AcDbEntity
8
0
100
AcDbLine
10
280
20
294
30
0
11
280
21
290
31
0
0
LINE
5
130
100
AcDbEntity
8
0
100
AcDbLine
10
290.30000000000001
20
290
30
0
11
300
21
290
31
0
0
LINE
5
131
100
AcDbEntity
8
0
100
AcDbLine
10
180
20
290
30
0
11
180
21
299.69999999999999
31
0
0
LINE
5
132
100
AcDbEntity
8
0
100
AcDbLine
10
180
20
299.69999999999999
30
0
11
184
21
299.69999999999999
31
0
0
LINE
5
133
100
AcDbEntity
8
0
100
AcDbLine
10
184
20
299.69999999999999
30
0
11
184
21
310
31
0
0
LINE
5
134
100
AcDbEntity
8
0
100
AcDbLine
10
184
20
310
30
0
11
180
21
310
31
0
0
LINE
5
135
100
AcDbEntity
8
0
100
AcDbLine
10
180
20
319.69999999999999
30
0
11
184
21
319.69999999999999
31
0
0
LINE
5
136
100
AcDbEntity
8
0
100
AcDbLine
10
184
20
319.69999999999999
30
0
11
184
21
330
31
0
0
LINE
5
137
100
AcDbEntity
8
0
100
AcDbLine
10
180
20
310
30
0
11
180
21
319.69999999999999
31
0
0
LINE
5
138
100
AcDbEntity
8
0
100
AcDbLine
10
184
20
330
30
0
11
180
21
330
31
0
0
LINE
5
139
100
AcDbEntity
8
0
100
AcDbLine
10
180
20
339.69999999999999
30
0
11
184
21
339.69999999999999
31
0
0
LINE
5
140
100
AcDbEntity
8
0
100
AcDbLine
10
184
20
339.69999999999999
30
0
11
184
21
350
31
0
0
LINE
5
141
100
AcDbEntity
8
0
100
AcDbLine
10
180
20
330
30
0
11
180
21
339.69999999999999
31
0
0
LINE
5
142
100
AcDbEntity
8
0
100
AcDbLine
10
184
20
350
30
0
11
180
21
350
31
0
0
LINE
5
143
100
AcDbEntity
8
0
100
AcDbLine
10
180
20
359.69999999999999
30
0
11
184
21
359.69999999999999
31
0
0
LINE
5
144
100
AcDbEntity
8
0
100
AcDbLine
10
184
20
359.69999999999999
30
0
11
184
21
370
31
0
0
LINE
5
145
100
AcDbEntity
8
0
100
AcDbLine
10
180
20
350
30
0
11
180
21
359.69999999999999
31
0
0
LINE
5
146
100
AcDbEntity
8
0
100
AcDbLine
10
184
20
370
30
0
11
180
21
370
31
0
0
LINE
5
147
100
AcDbEntity
8
0
100
AcDbLine
10
180
20
379.69999999999999
30
0
11
184
21
379.69999999999999
31
0
0
LINE
5
148
100
AcDbEntity
8
0
100
AcDbLine
10
184
20
379.69999999999999
30
0
11
184
21
390
31
0
0
LINE
5
149
100
AcDbEntity
8
0
100
AcDbLine
10
180
20
370
30
0
11
180
21
379.69999999999999
31
0
0
LINE
5
150
100
AcDbEntity
8
0
100
AcDbLine
10
184
20
390
30
0
11
180
21
390
31
0
0
LINE
5
151
100
AcDbEntity
8
0
100
AcDbLine
10
180
20
399.69999999999999
30
0
11
184
21
399.69999999999999
31
0
0
LINE
5
152
100
AcDbEntity
8
0
100
AcDbLine
10
184
20
399.69999999999999
30
0
11
184
21
410
31
0
0
LINE
5
153
100
AcDbEntity
8
0
100
AcDbLine
10
180
20
390
30
0
11
180
21
399.69999999999999
31
0
0
LINE
5
154
100
AcDbEntity
8
0
100
AcDbLine
10
184
20
410
30
0
11
180
21
410
31
0
0
LINE
5
155
100
AcDbEntity
8
0
100
AcDbLine
10
-3.9999999999999858
20
390
30
0
11
0
21
390
31
0
0
LINE
5
156
100
AcDbEntity
8
0
100
AcDbLine
10
-3.9999999999999858
20
370
30
0
11
0
21
370
31
0
0
LINE
5
157
100
AcDbEntity
8
0
100
AcDbLine
10
-20
20
294
30
0
11
-20
21
290
31
0
0
LINE
5
158
100
AcDbEntity
8
0
100
AcDbLine
10
0
20
290
30
0
11
0
21
299.69999999999999
31
0
0
LINE
5
159
100
AcDbEntity
8
0
100
AcDbLine
10
-110.30000000000001
20
290
30
0
11
-120
21
290
31
0
0
LINE
5
160
100
AcDbEntity
8
0
100
AcDbLine
10
-10.300000000000011
20
290
30
0
11
-20
21
290
31
0
0
LINE
5
161
100
AcDbEntity
8
0
100
AcDbLine
10
-3.9999999999999858
20
359.69999999999999
30
0
11
-3.9999999999999858
21
370
31
0
0
LINE
5
162
100
AcDbEntity
8
0
100
AcDbLine
10
-90.300000000000011
20
294
30
0
11
-80
21
294
31
0
0
LINE
5
163
100
AcDbEntity
8
0
100
AcDbLine
10
-90.300000000000011
20
290
30
0
11
-90.300000000000011
21
294
31
0
0
LINE
5
164
100
AcDbEntity
8
0
100
AcDbLine
10
-3.9999999999999858
20
350
30
0
11
0
21
350
31
0
0
LINE
5
165
100
AcDbEntity
8
0
100
AcDbLine
10
-10.300000000000011
20
294
30
0
11
0
21
294
31
0
0
LINE
5
166
100
AcDbEntity
8
0
100
AcDbLine
10
0
20
379.69999999999999
30
0
11
-3.9999999999999858
21
379.69999999999999
31
0
0
LINE
5
167
100
AcDbEntity
8
0
100
AcDbLine
10
0
20
339.69999999999999
30
0
11
-3.9999999999999858
21
339.69999999999999
31
0
0
LINE
5
168
100
AcDbEntity
8
0
100
AcDbLine
10
-3.9999999999999858
20
299.69999999999999
30
0
11
-3.9999999999999858
21
310
31
0
0
LINE
5
169
100
AcDbEntity
8
0
100
AcDbLine
10
-80
20
294
30
0
11
-80
21
290
31
0
0
LINE
5
170
100
AcDbEntity
8
0
100
AcDbLine
10
-110.30000000000001
20
290
30
0
11
-110.30000000000001
21
294
31
0
0
LINE
5
171
100
AcDbEntity
8
0
100
AcDbLine
10
-90.300000000000011
20
290
30
0
11
-100
21
290
31
0
0
LINE
5
172
100
AcDbEntity
8
0
100
AcDbLine
10
-3.9999999999999858
20
379.69999999999999
30
0
11
-3.9999999999999858
21
390
31
0
0
LINE
5
173
100
AcDbEntity
8
0
100
AcDbLine
10
0
20
350
30
0
11
0
21
359.69999999999999
31
0
0
LINE
5
174
100
AcDbEntity
8
0
100
AcDbLine
10
0
20
390
30
0
11
0
21
399.69999999999999
31
0
0
LINE
5
175
100
AcDbEntity
8
0
100
AcDbLine
10
0
20
399.69999999999999
30
0
11
-3.9999999999999858
21
399.69999999999999
31
0
0
LINE
5
176
100
AcDbEntity
8
0
100
AcDbLine
10
-3.9999999999999858
20
339.69999999999999
30
0
11
-3.9999999999999858
21
350
31
0
0
LINE
5
177
100
AcDbEntity
8
0
100
AcDbLine
10
-30.300000000000011
20
294
30
0
11
-20
21
294
31
0
0
LINE
5
178
100
AcDbEntity
8
0
100
AcDbLine
10
-70.300000000000011
20
294
30
0
11
-60
21
294
31
0
0
LINE
5
179
100
AcDbEntity
8
0
100
AcDbLine
10
0
20
319.69999999999999
30
0
11
-3.9999999999999858
21
319.69999999999999
31
0
0
LINE
5
180
100
AcDbEntity
8
0
100
AcDbLine
10
-3.9999999999999858
20
330
30
0
11
0
21
330
31
0
0
LINE
5
181
100
AcDbEntity
8
0
100
AcDbLine
10
0
20
359.69999999999999
30
0
11
-3.9999999999999858
21
359.69999999999999
31
0
0
LINE
5
182
100
AcDbEntity
8
0
100
AcDbLine
10
-3.9999999999999858
20
410
30
0
11
0
21
410
31
0
0
LINE
5
183
100
AcDbEntity
8
0
100
AcDbLine
10
-3.9999999999999858
20
399.69999999999999
30
0
11
-3.9999999999999858
21
410
31
0
0
LINE
5
184
100
AcDbEntity
8
0
100
AcDbLine
10
-100
20
294
30
0
11
-100
21
290
31
0
0
LINE
5
185
100
AcDbEntity
8
0
100
AcDbLine
10
-50.300000000000011
20
294
30
0
11
-40
21
294
31
0
0
LINE
5
186
100
AcDbEntity
8
0
100
AcDbLine
10
0
20
294
30
0
11
0
21
290
31
0
0
LINE
5
187
100
AcDbEntity
8
0
100
AcDbLine
10
-10.300000000000011
20
290
30
0
11
-10.300000000000011
21
294
31
0
0
LINE
5
188
100
AcDbEntity
8
0
100
AcDbLine
10
-3.9999999999999858
20
319.69999999999999
30
0
11
-3.9999999999999858
21
330
31
0
0
LINE
5
189
100
AcDbEntity
8
0
100
AcDbLine
10
-50.300000000000011
20
290
30
0
11
-60
21
290
31
0
0
LINE
5
190
100
AcDbEntity
8
0
100
AcDbLine
10
-70.300000000000011
20
290
30
0
11
-80
21
290
31
0
0
LINE
5
191
100
AcDbEntity
8
0
100
AcDbLine
10
-30.300000000000011
20
290
30
0
11
-40
21
290
31
0
0
LINE
5
192
100
AcDbEntity
8
0
100
AcDbLine
10
-50.300000000000011
20
290
30
0
11
-50.300000000000011
21
294
31
0
0
LINE
5
193
100
AcDbEntity
8
0
100
AcDbLine
10
-40
20
294
30
0
11
-40
21
290
31
0
0
LINE
5
194
100
AcDbEntity
8
0
100
AcDbLine
10
-3.9999999999999858
20
310
30
0
11
0
21
310
31
0
0
LINE
5
195
100
AcDbEntity
8
0
100
AcDbLine
10
0
20
330
30
0
11
0
21
339.69999999999999
31
0
0
LINE
5
196
100
AcDbEntity
8
0
100
AcDbLine
10
-60
20
294
30
0
11
-60
21
290
31
0
0
LINE
5
197
100
AcDbEntity
8
0
100
AcDbLine
10
0
20
299.69999999999999
30
0
11
-3.9999999999999858
21
299.69999999999999
31
0
0
LINE
5
198
100
AcDbEntity
8
0
100
AcDbLine
10
0
20
310
30
0
11
0
21
319.69999999999999
31
0
0
LINE
5
199
100
AcDbEntity
8
0
100
AcDbLine
10
-110.30000000000001
20
294
30
0
11
-100
21
294
31
0
0
LINE
5
200
100
AcDbEntity
8
0
100
AcDbLine
10
-70.300000000000011
20
290
30
0
11
-70.300000000000011
21
294
31
0
0
LINE
5
201
100
AcDbEntity
8
0
100
AcDbLine
10
-30.300000000000011
20
290
30
0
11
-30.300000000000011
21
294
31
0
0
LINE
5
202
100
AcDbEntity
8
0
100
AcDbLine
10
0
20
370
30
0
11
0
21
379.69999999999999
31
0
0
LINE
5
203
100
AcDbEntity
8
0
100
AcDbLine
10
250.30000000000001
20
-3.9999999999999858
30
0
11
240
21
-3.9999999999999858
31
0
0
LINE
5
204
100
AcDbEntity
8
0
100
AcDbLine
10
-10.300000000000011
20
-3.9999999999999858
30
0
11
0
21
-3.9999999999999858
31
0
0
LINE
5
205
100
AcDbEntity
8
0
100
AcDbLine
10
0
20
-29.699999999999989
30
0
11
-3.9999999999999858
21
-29.699999999999989
31
0
0
LINE
5
206
100
AcDbEntity
8
0
100
AcDbLine
10
0
20
-40
30
0
11
0
21
-49.699999999999989
31
0
0
LINE
5
207
100
AcDbEntity
8
0
100
AcDbLine
10
0
20
-20
30
0
11
0
21
-29.699999999999989
31
0
0
LINE
5
208
100
AcDbEntity
8
0
100
AcDbLine
10
0
20
-100
30
0
11
0
21
-109.69999999999999
31
0
0
LINE
5
209
100
AcDbEntity
8
0
100
AcDbLine
10
250.30000000000001
20
0
30
0
11
250.30000000000001
21
-3.9999999999999858
31
0
0
LINE
5
210
100
AcDbEntity
8
0
100
AcDbLine
10
-90.300000000000011
20
0
30
0
11
-100
21
0
31
0
0
LINE
5
211
100
AcDbEntity
8
0
100
AcDbLine
10
184
20
-20
30
0
11
180
21
-20
31
0
0
LINE
5
212
100
AcDbEntity
8
0
100
AcDbLine
10
180
20
-120
30
0
11
0
21
-120
31
0
0
LINE
5
213
100
AcDbEntity
8
0
100
AcDbLine
10
290.30000000000001
20
0
30
0
11
290.30000000000001
21
-3.9999999999999858
31
0
0
LINE
5
214
100
AcDbEntity
8
0
100
AcDbLine
10
180
20
-29.699999999999989
30
0
11
184
21
-29.699999999999989
31
0
0
LINE
5
215
100
AcDbEntity
8
0
100
AcDbLine
10
184
20
-9.6999999999999886
30
0
11
184
21
-20
31
0
0
LINE
5
216
100
AcDbEntity
8
0
100
AcDbLine
10
180
20
-80
30
0
11
180
21
-89.699999999999989
31
0
0
LINE
5
217
100
AcDbEntity
8
0
100
AcDbLine
10
190.30000000000001
20
-3.9999999999999858
30
0
11
180
21
-3.9999999999999858
31
0
0
LINE
5
218
100
AcDbEntity
8
0
100
AcDbLine
10
184
20
-80
30
0
11
180
21
-80
31
0
0
LINE
5
219
100
AcDbEntity
8
0
100
AcDbLine
10
180
20
-40
30
0
11
180
21
-49.699999999999989
31
0
0
LINE
5
220
100
AcDbEntity
8
0
100
AcDbLine
10
180
20
-100
30
0
11
180
21
-109.69999999999999
31
0
0
LINE
5
221
100
AcDbEntity
8
0
100
AcDbLine
10
180
20
-9.6999999999999886
30
0
11
184
21
-9.6999999999999886
31
0
0
LINE
5
222
100
AcDbEntity
8
0
100
AcDbLine
10
-90.300000000000011
20
0
30
0
11
-90.300000000000011
21
-3.9999999999999858
31
0
0
LINE
5
223
100
AcDbEntity
8
0
100
AcDbLine
10
240
20
-3.9999999999999858
30
0
11
240
21
0
31
0
0
LINE
5
224
100
AcDbEntity
8
0
100
AcDbLine
10
-110.30000000000001
20
0
30
0
11
-110.30000000000001
21
-3.9999999999999858
31
0
0
LINE
5
225
100
AcDbEntity
8
0
100
AcDbLine
10
260
20
-3.9999999999999858
30
0
11
260
21
0
31
0
0
LINE
5
226
100
AcDbEntity
8
0
100
AcDbLine
10
-70.300000000000011
20
0
30
0
11
-70.300000000000011
21
-3.9999999999999858
31
0
0
LINE
5
227
100
AcDbEntity
8
0
100
AcDbLine
10
230.30000000000001
20
0
30
0
11
230.30000000000001
21
-3.9999999999999858
31
0
0
LINE
5
228
100
AcDbEntity
8
0
100
AcDbLine
10
280
20
-3.9999999999999858
30
0
11
280
21
0
31
0
0
LINE
5
229
100
AcDbEntity
8
0
100
AcDbLine
10
184
20
-49.699999999999989
30
0
11
184
21
-60
31
0
0
LINE
5
230
100
AcDbEntity
8
0
100
AcDbLine
10
184
20
-60
30
0
11
180
21
-60
31
0
0
LINE
5
231
100
AcDbEntity
8
0
100
AcDbLine
10
180
20
-69.699999999999989
30
0
11
184
21
-69.699999999999989
31
0
0
LINE
5
232
100
AcDbEntity
8
0
100
AcDbLine
10
184
20
-120
30
0
11
180
21
-120
31
0
0
LINE
5
233
100
AcDbEntity
8
0
100
AcDbLine
10
180
20
-89.699999999999989
30
0
11
184
21
-89.699999999999989
31
0
0
LINE
5
234
100
AcDbEntity
8
0
100
AcDbLine
10
-30.300000000000011
20
0
30
0
11
-40
21
0
31
0
0
LINE
5
235
100
AcDbEntity
8
0
100
AcDbLine
10
270.30000000000001
20
-3.9999999999999858
30
0
11
260
21
-3.9999999999999858
31
0
0
LINE
5
236
100
AcDbEntity
8
0
100
AcDbLine
10
-30.300000000000011
20
0
30
0
11
-30.300000000000011
21
-3.9999999999999858
31
0
0
LINE
5
237
100
AcDbEntity
8
0
100
AcDbLine
10
180
20
-60
30
0
11
180
21
-69.699999999999989
31
0
0
LINE
5
238
100
AcDbEntity
8
0
100
AcDbLine
10
-3.9999999999999858
20
-20
30
0
11
0
21
-20
31
0
0
LINE
5
239
100
AcDbEntity
8
0
100
AcDbLine
10
-90.300000000000011
20
-3.9999999999999858
30
0
11
-80
21
-3.9999999999999858
31
0
0
LINE
5
240
100
AcDbEntity
8
0
100
AcDbLine
10
230.30000000000001
20
0
30
0
11
240
21
0
31
0
0
LINE
5
241
100
AcDbEntity
8
0
100
AcDbLine
10
290.30000000000001
20
0
30
0
11
300
21
0
31
0
0
LINE
5
242
100
AcDbEntity
8
0
100
AcDbLine
10
-50.300000000000011
20
0
30
0
11
-50.300000000000011
21
-3.9999999999999858
31
0
0
LINE
5
243
100
AcDbEntity
8
0
100
AcDbLine
10
184
20
-100
30
0
11
180
21
-100
31
0
0
LINE
5
244
100
AcDbEntity
8
0
100
AcDbLine
10
180
20
-49.699999999999989
30
0
11
184
21
-49.699999999999989
31
0
0
LINE
5
245
100
AcDbEntity
8
0
100
AcDbLine
10
290.30000000000001
20
-3.9999999999999858
30
0
11
280
21
-3.9999999999999858
31
0
0
LINE
5
246
100
AcDbEntity
8
0
100
AcDbLine
10
184
20
-69.699999999999989
30
0
11
184
21
-80
31
0
0
LINE
5
247
100
AcDbEntity
8
0
100
AcDbLine
10
0
20
-60
30
0
11
0
21
-69.699999999999989
31
0
0
LINE
5
248
100
AcDbEntity
8
0
100
AcDbLine
10
210.30000000000001
20
-3.9999999999999858
30
0
11
200
21
-3.9999999999999858
31
0
0
LINE
5
249
100
AcDbEntity
8
0
100
AcDbLine
10
184
20
-89.699999999999989
30
0
11
184
21
-100
31
0
0
LINE
5
250
100
AcDbEntity
8
0
100
AcDbLine
10
230.30000000000001
20
-3.9999999999999858
30
0
11
220
21
-3.9999999999999858
31
0
0
LINE
5
251
100
AcDbEntity
8
0
100
AcDbLine
10
-110.30000000000001
20
-3.9999999999999858
30
0
11
-100
21
-3.9999999999999858
31
0
0
LINE
5
252
100
AcDbEntity
8
0
100
AcDbLine
10
0
20
-80
30
0
11
0
21
-89.699999999999989
31
0
0
LINE
5
253
100
AcDbEntity
8
0
100
AcDbLine
10
-3.9999999999999858
20
-60
30
0
11
0
21
-60
31
0
0
LINE
5
254
100
AcDbEntity
8
0
100
AcDbLine
10
-3.9999999999999858
20
-80
30
0
11
0
21
-80
31
0
0
LINE
5
255
100
AcDbEntity
8
0
100
AcDbLine
10
0
20
-9.6999999999999886
30
0
11
-3.9999999999999858
21
-9.6999999999999886
31
0
0
LINE
5
256
100
AcDbEntity
8
0
100
AcDbLine
10
-70.300000000000011
20
-3.9999999999999858
30
0
11
-60
21
-3.9999999999999858
31
0
0
LINE
5
257
100
AcDbEntity
8
0
100
AcDbLine
10
-3.9999999999999858
20
-89.699999999999989
30
0
11
-3.9999999999999858
21
-100
31
0
0
LINE
5
258
100
AcDbEntity
8
0
100
AcDbLine
10
-3.9999999999999858
20
-69.699999999999989
30
0
11
-3.9999999999999858
21
-80
31
0
0
LINE
5
259
100
AcDbEntity
8
0
100
AcDbLine
10
0
20
-109.69999999999999
30
0
11
-3.9999999999999858
21
-109.69999999999999
31
0
0
LINE
5
260
100
AcDbEntity
8
0
100
AcDbLine
10
-3.9999999999999858
20
-40
30
0
11
0
21
-40
31
0
0
LINE
5
261
100
AcDbEntity
8
0
100
AcDbLine
10
0
20
-49.699999999999989
30
0
11
-3.9999999999999858
21
-49.699999999999989
31
0
0
LINE
5
262
100
AcDbEntity
8
0
100
AcDbLine
10
184
20
-40
30
0
11
180
21
-40
31
0
0
LINE
5
263
100
AcDbEntity
8
0
100
AcDbLine
10
0
20
-69.699999999999989
30
0
11
-3.9999999999999858
21
-69.699999999999989
31
0
0
LINE
5
264
100
AcDbEntity
8
0
100
AcDbLine
10
-3.9999999999999858
20
-29.699999999999989
30
0
11
-3.9999999999999858
21
-40
31
0
0
LINE
5
265
100
AcDbEntity
8
0
100
AcDbLine
10
-3.9999999999999858
20
-100
30
0
11
0
21
-100
31
0
0
LINE
5
266
100
AcDbEntity
8
0
100
AcDbLine
10
180
20
-20
30
0
11
180
21
-29.699999999999989
31
0
0
LINE
5
267
100
AcDbEntity
8
0
100
AcDbLine
10
180
20
-109.69999999999999
30
0
11
184
21
-109.69999999999999
31
0
0
LINE
5
268
100
AcDbEntity
8
0
100
AcDbLine
10
-30.300000000000011
20
-3.9999999999999858
30
0
11
-20
21
-3.9999999999999858
31
0
0
LINE
5
269
100
AcDbEntity
8
0
100
AcDbLine
10
-20
20
-3.9999999999999858
30
0
11
-20
21
0
31
0
0
LINE
5
270
100
AcDbEntity
8
0
100
AcDbLine
10
0
20
-3.9999999999999858
30
0
11
0
21
0
31
0
0
LINE
5
271
100
AcDbEntity
8
0
100
AcDbLine
10
210.30000000000001
20
0
30
0
11
220
21
0
31
0
0
LINE
5
272
100
AcDbEntity
8
0
100
AcDbLine
10
0
20
-89.699999999999989
30
0
11
-3.9999999999999858
21
-89.699999999999989
31
0
0
LINE
5
273
100
AcDbEntity
8
0
100
AcDbLine
10
-3.9999999999999858
20
-9.6999999999999886
30
0
11
-3.9999999999999858
21
-20
31
0
0
LINE
5
274
100
AcDbEntity
8
0
100
AcDbLine
10
-3.9999999999999858
20
-49.699999999999989
30
0
11
-3.9999999999999858
21
-60
31
0
0
LINE
5
275
100
AcDbEntity
8
0
100
AcDbLine
10
-50.300000000000011
20
-3.9999999999999858
30
0
11
-40
21
-3.9999999999999858
31
0
0
LINE
5
276
100
AcDbEntity
8
0
100
AcDbLine
10
-3.9999999999999858
20
-109.69999999999999
30
0
11
-3.9999999999999858
21
-120
31
0
0
LINE
5
277
100
AcDbEntity
8
0
100
AcDbLine
10
-3.9999999999999858
20
-120
30
0
11
0
21
-120
31
0
0
LINE
5
278
100
AcDbEntity
8
0
100
AcDbLine
10
190.30000000000001
20
0
30
0
11
200
21
0
31
0
0
LINE
5
279
100
AcDbEntity
8
0
100
AcDbLine
10
0
20
0
30
0
11
180
21
0
31
0
0
LINE
5
280
100
AcDbEntity
8
0
100
AcDbLine
10
210.30000000000001
20
0
30
0
11
210.30000000000001
21
-3.9999999999999858
31
0
0
LINE
5
281
100
AcDbEntity
8
0
100
AcDbLine
10
180
20
0
30
0
11
180
21
-9.6999999999999886
31
0
0
LINE
5
282
100
AcDbEntity
8
0
100
AcDbLine
10
-110.30000000000001
20
0
30
0
11
-120
21
0
31
0
0
LINE
5
283
100
AcDbEntity
8
0
100
AcDbLine
10
-10.300000000000011
20
0
30
0
11
-20
21
0
31
0
0
LINE
5
284
100
AcDbEntity
8
0
100
AcDbLine
10
184
20
-109.69999999999999
30
0
11
184
21
-120
31
0
0
LINE
5
285
100
AcDbEntity
8
0
100
AcDbLine
10
-60
20
-3.9999999999999858
30
0
11
-60
21
0
31
0
0
LINE
5
286
100
AcDbEntity
8
0
100
AcDbLine
10
190.30000000000001
20
0
30
0
11
190.30000000000001
21
-3.9999999999999858
31
0
0
LINE
5
287
100
AcDbEntity
8
0
100
AcDbLine
10
270.30000000000001
20
0
30
0
11
280
21
0
31
0
0
LINE
5
288
100
AcDbEntity
8
0
100
AcDbLine
10
-100
20
-3.9999999999999858
30
0
11
-100
21
0
31
0
0
LINE
5
289
100
AcDbEntity
8
0
100
AcDbLine
10
184
20
-29.699999999999989
30
0
11
184
21
-40
31
0
0
LINE
5
290
100
AcDbEntity
8
0
100
AcDbLine
10
180
20
0
30
0
11
0
21
0
31
0
0
LINE
5
291
100
AcDbEntity
8
0
100
AcDbLine
10
180
20
-3.9999999999999858
30
0
11
180
21
0
31
0
0
LINE
5
292
100
AcDbEntity
8
0
100
AcDbLine
10
0
20
0
30
0
11
0
21
-9.6999999999999886
31
0
0
LINE
5
293
100
AcDbEntity
8
0
100
AcDbLine
10
-70.300000000000011
20
0
30
0
11
-80
21
0
31
0
0
LINE
5
294
100
AcDbEntity
8
0
100
AcDbLine
10
-10.300000000000011
20
0
30
0
11
-10.300000000000011
21
-3.9999999999999858
31
0
0
LINE
5
295
100
AcDbEntity
8
0
100
AcDbLine
10
200
20
-3.9999999999999858
30
0
11
200
21
0
31
0
0
LINE
5
296
100
AcDbEntity
8
0
100
AcDbLine
10
250.30000000000001
20
0
30
0
11
260
21
0
31
0
0
LINE
5
297
100
AcDbEntity
8
0
100
AcDbLine
10
220
20
-3.9999999999999858
30
0
11
220
21
0
31
0
0
LINE
5
298
100
AcDbEntity
8
0
100
AcDbLine
10
270.30000000000001
20
0
30
0
11
270.30000000000001
21
-3.9999999999999858
31
0
0
LINE
5
299
100
AcDbEntity
8
0
100
AcDbLine
10
-80
20
-3.9999999999999858
30
0
11
-80
21
0
31
0
0
LINE
5
300
100
AcDbEntity
8
0
100
AcDbLine
10
-50.300000000000011
20
0
30
0
11
-60
21
0
31
0
0
LINE
5
301
100
AcDbEntity
8
0
100
AcDbLine
10
-40
20
-3.9999999999999858
30
0
11
-40
21
0
31
0
0
LINE
5
302
100
AcDbEntity
8
0
100
AcDbLine
10
-120
20
290
30
0
11
-120
21
0
31
0
0
ARC
5
303
100
AcDbEntity
8
0
100
AcDbCircle
10
39.23777972004396
20
367.35000000000002
30
0
40
12.5
210
0
220
0
230
1
100
AcDbArc
50
180
51
270
0
ARC
5
304
100
AcDbEntity
8
0
100
AcDbCircle
10
39.23777972004396
20
367.35000000000002
30
0
40
12.5
210
0
220
0
230
1
100
AcDbArc
50
90
51
180
0
ARC
5
305
100
AcDbEntity
8
0
100
AcDbCircle
10
140.76222027995604
20
367.35000000000002
30
0
40
12.5
210
0
220
0
230
1
100
AcDbArc
50
-90
51
0
0
ARC
5
306
100
AcDbEntity
8
0
100
AcDbCircle
10
140.76222027995604
20
367.35000000000002
30
0
40
12.5
210
0
220
0
230
1
100
AcDbArc
50
0
51
90
0
LINE
5
307
100
AcDbEntity
8
0
100
AcDbLine
10
39.23777972004396
20
379.85000000000002
30
0
11
140.76222027995604
21
379.85000000000002
31
0
0
LINE
5
308
100
AcDbEntity
8
0
100
AcDbLine
10
140.76222027995604
20
354.85000000000002
30
0
11
39.23777972004396
21
354.85000000000002
31
0
0
LINE
5
309
100
AcDbEntity
8
0
100
AcDbLine
10
140.76222027995604
20
-64.849999999999994
30
0
11
39.23777972004396
21
-64.849999999999994
31
0
0
LINE
5
310
100
AcDbEntity
8
0
100
AcDbLine
10
39.23777972004396
20
-89.849999999999994
30
0
11
140.76222027995604
21
-89.849999999999994
31
0
0
ARC
5
311
100
AcDbEntity
8
0
100
AcDbCircle
10
140.76222027995604
20
-77.349999999999994
30
0
40
12.5
210
0
220
0
230
1
100
AcDbArc
50
-90
51
0
0
ARC
5
312
100
AcDbEntity
8
0
100
AcDbCircle
10
140.76222027995604
20
-77.349999999999994
30
0
40
12.5
210
0
220
0
230
1
100
AcDbArc
50
0
51
90
0
ARC
5
313
100
AcDbEntity
8
0
100
AcDbCircle
10
39.23777972004396
20
-77.349999999999994
30
0
40
12.5
210
0
220
0
230
1
100
AcDbArc
50
180
51
270
0
ARC
5
314
100
AcDbEntity
8
0
100
AcDbCircle
10
39.23777972004396
20
-77.349999999999994
30
0
40
12.5
210
0
220
0
230
1
100
AcDbArc
50
90
51
180
0
SPLINE
5
315
100
AcDbEntity
8
0
100
AcDbSpline
70
0
71
2
72
6
73
3
74
0
42
0.000000001
43
0.0000000001
44
0.0000000001
40
0
40
0
40
0
40
1
40
1
40
1
10
21.342124141569503
20
317.83679099621992
30
0
10
20.858255135276536
20
317.83821522305476
30
0
10
20.696706715178873
20
317.7507138901575
30
0
0
SPLINE
5
316
100
AcDbEntity
8
0
100
AcDbSpline
70
0
71
2
72
6
73
3
74
0
42
0.000000001
43
0.0000000001
44
0.0000000001
40
0
40
0
40
0
40
1
40
1
40
1
10
20.696706715178873
20
317.7507138901575
30
0
10
20.476377803903731
20
317.61939655814126
30
0
10
20.475039895494824
20
317.16485350608912
30
0
0
LINE
5
317
100
AcDbEntity
8
0
100
AcDbLine
10
20.475039895494824
20
317.16485350608912
30
0
11
20.472623025182823
21
316.34374228448775
31
0
0
SPLINE
5
318
100
AcDbEntity
8
0
100
AcDbSpline
70
0
71
2
72
6
73
3
74
0
42
0.000000001
43
0.0000000001
44
0.0000000001
40
0
40
0
40
0
40
1
40
1
40
1
10
20.472623025182823
20
316.34374228448775
30
0
10
20.47188933347471
20
316.09447673981396
30
0
10
20.530151624846596
20
315.9623399945848
30
0
0
SPLINE
5
319
100
AcDbEntity
8
0
100
AcDbSpline
70
0
71
2
72
6
73
3
74
0
42
0.000000001
43
0.0000000001
44
0.0000000001
40
0
40
0
40
0
40
1
40
1
40
1
10
20.530151624846596
20
315.9623399945848
30
0
10
20.603120051674651
20
315.84482276924103
30
0
10
20.881710954545344
20
315.84400276086137
30
0
0
SPLINE
5
320
100
AcDbEntity
8
0
100
AcDbSpline
70
0
71
2
72
6
73
3
74
0
42
0.000000001
43
0.0000000001
44
0.0000000001
40
0
40
0
40
0
40
1
40
1
40
1
10
20.881710954545344
20
315.84400276086137
30
0
10
21.526869430921344
20
315.84210379233303
30
0
10
21.528250497666022
20
316.31130952348366
30
0
0
LINE
5
321
100
AcDbEntity
8
0
100
AcDbLine
10
21.528250497666022
20
316.31130952348366
30
0
11
21.528811557785453
21
316.50192494780748
31
0
0
SPLINE
5
322
100
AcDbEntity
8
0
100
AcDbSpline
70
0
71
2
72
6
73
3
74
0
42
0.000000001
43
0.0000000001
44
0.0000000001
40
0
40
0
40
0
40
1
40
1
40
1
10
21.528811557785453
20
316.50192494780748
30
0
10
21.514407828701625
20
316.58994418073399
30
0
10
21.514796253723567
20
316.72190829262013
30
0
0
SPLINE
5
323
100
AcDbEntity
8
0
100
AcDbSpline
70
0
71
2
72
6
73
3
74
0
42
0.000000001
43
0.0000000001
44
0.0000000001
40
0
40
0
40
0
40
1
40
1
40
1
10
21.514796253723567
20
316.72190829262013
30
0
10
21.516608905580362
20
317.33774141079925
30
0
10
22.235080777448651
20
317.33562665059202
30
0
0
SPLINE
5
324
100
AcDbEntity
8
0
100
AcDbSpline
70
0
71
2
72
6
73
3
74
0
42
0.000000001
43
0.0000000001
44
0.0000000001
40
0
40
0
40
0
40
1
40
1
40
1
10
22.235080777448651
20
317.33562665059202
30
0
10
22.982878603557715
20
317.33342557195886
30
0
10
22.980677526678978
20
316.58562834189365
30
0
0
SPLINE
5
325
100
AcDbEntity
8
0
100
AcDbSpline
70
0
71
2
72
6
73
3
74
0
42
0.000000001
43
0.0000000001
44
0.0000000001
40
0
40
0
40
0
40
1
40
1
40
1
10
22.980677526678978
20
316.58562834189365
30
0
10
22.980073308223776
20
316.38035023847141
30
0
10
22.950014258318753
20
316.13117101046919
30
0
0
SPLINE
5
326
100
AcDbEntity
8
0
100
AcDbSpline
70
0
71
2
72
6
73
3
74
0
42
0.000000001
43
0.0000000001
44
0.0000000001
40
0
40
0
40
0
40
1
40
1
40
1
10
22.950014258318753
20
316.13117101046919
30
0
10
22.889938719046199
20
315.6474746392737
30
0
10
22.888730285644602
20
315.23691962451687
30
0
0
SPLINE
5
327
100
AcDbEntity
8
0
100
AcDbSpline
70
0
71
2
72
6
73
3
74
0
42
0.000000001
43
0.0000000001
44
0.0000000001
40
0
40
0
40
0
40
1
40
1
40
1
10
22.888730285644602
20
315.23691962451687
30
0
10
22.887608167160145
20
314.85568937191312
30
0
10
22.944533144412588
20
314.26900897683345
30
0
0
SPLINE
5
328
100
AcDbEntity
8
0
100
AcDbSpline
70
0
71
2
72
6
73
3
74
0
42
0.000000001
43
0.0000000001
44
0.0000000001
40
0
40
0
40
0
40
1
40
1
40
1
10
22.944533144412588
20
314.26900897683345
30
0
10
23.001457525621163
20
313.68232858350825
30
0
10
23.00076699224882
20
313.44772571793288
30
0
0
SPLINE
5
329
100
AcDbEntity
8
0
100
AcDbSpline
70
0
71
2
72
6
73
3
74
0
42
0.000000001
43
0.0000000001
44
0.0000000001
40
0
40
0
40
0
40
1
40
1
40
1
10
23.00076699224882
20
313.44772571793288
30
0
10
22.998220646929507
20
312.58262645903619
30
0
10
22.221097462623526
20
312.58491385434081
30
0
0
SPLINE
5
330
100
AcDbEntity
8
0
100
AcDbSpline
70
0
71
2
72
6
73
3
74
0
42
0.000000001
43
0.0000000001
44
0.0000000001
40
0
40
0
40
0
40
1
40
1
40
1
10
22.221097462623526
20
312.58491385434081
30
0
10
21.48796291165678
20
312.5870717728838
30
0
10
21.490163990289926
20
313.3348695989929
30
0
0
SPLINE
5
331
100
AcDbEntity
8
0
100
AcDbSpline
70
0
71
2
72
6
73
3
74
0
42
0.000000001
43
0.0000000001
44
0.0000000001
40
0
40
0
40
0
40
1
40
1
40
1
10
21.490163990289926
20
313.3348695989929
30
0
10
21.49037978196878
20
313.40818299448517
30
0
10
21.49037978196878
20
313.40818299448517
30
0
0
SPLINE
5
332
100
AcDbEntity
8
0
100
AcDbSpline
70
0
71
2
72
6
73
3
74
0
42
0.000000001
43
0.0000000001
44
0.0000000001
40
0
40
0
40
0
40
1
40
1
40
1
10
21.49037978196878
20
313.40818299448517
30
0
10
21.490595573647635
20
313.48149638997745
30
0
10
21.520740940224208
20
313.76000097617657
30
0
0
SPLINE
5
333
100
AcDbEntity
8
0
100
AcDbSpline
70
0
71
2
72
6
73
3
74
0
42
0.000000001
43
0.0000000001
44
0.0000000001
40
0
40
0
40
0
40
1
40
1
40
1
10
21.520740940224208
20
313.76000097617657
30
0
10
21.521776742037119
20
314.11190587058348
30
0
10
20.891280944759579
20
314.11376168077601
30
0
0
SPLINE
5
334
100
AcDbEntity
8
0
100
AcDbSpline
70
0
71
2
72
6
73
3
74
0
42
0.000000001
43
0.0000000001
44
0.0000000001
40
0
40
0
40
0
40
1
40
1
40
1
10
20.891280944759579
20
314.11376168077601
30
0
10
20.466062952882375
20
314.11501327339062
30
0
10
20.464681884383292
20
313.6458069461961
30
0
0
LINE
5
335
100
AcDbEntity
8
0
100
AcDbLine
10
20.464681884383292
20
313.6458069461961
30
0
11
20.461445005691637
21
312.54610482172404
31
0
0
SPLINE
5
336
100
AcDbEntity
8
0
100
AcDbSpline
70
0
71
2
72
6
73
3
74
0
42
0.000000001
43
0.0000000001
44
0.0000000001
40
0
40
0
40
0
40
1
40
1
40
1
10
20.461445005691637
20
312.54610482172404
30
0
10
20.459934463939646
20
312.03291105327804
30
0
10
20.635325852778038
20
311.84177832409159
30
0
0
SPLINE
5
337
100
AcDbEntity
8
0
100
AcDbSpline
70
0
71
2
72
6
73
3
74
0
42
0.000000001
43
0.0000000001
44
0.0000000001
40
0
40
0
40
0
40
1
40
1
40
1
10
20.635325852778038
20
311.84177832409159
30
0
10
20.825422777519925
20
311.66526392445735
30
0
10
21.323954462911349
20
311.66379653928675
30
0
0
LINE
5
338
100
AcDbEntity
8
0
100
AcDbLine
10
21.323954462911349
20
311.66379653928675
30
0
11
22.174390446665754
21
311.66129335405759
31
0
0
SPLINE
5
339
100
AcDbEntity
8
0
100
AcDbSpline
70
0
71
2
72
6
73
3
74
0
42
0.000000001
43
0.0000000001
44
0.0000000001
40
0
40
0
40
0
40
1
40
1
40
1
10
22.174390446665754
20
311.66129335405759
30
0
10
23.112803101054773
20
311.65853121705942
30
0
10
23.479844823718501
20
311.81874292083592
30
0
0
SPLINE
5
340
100
AcDbEntity
8
0
100
AcDbSpline
70
0
71
2
72
6
73
3
74
0
42
0.000000001
43
0.0000000001
44
0.0000000001
40
0
40
0
40
0
40
1
40
1
40
1
10
23.479844823718501
20
311.81874292083592
30
0
10
23.861549818015746
20
311.97891027243446
30
0
10
23.862758251417343
20
312.38946528719129
30
0
0
SPLINE
5
341
100
AcDbEntity
8
0
100
AcDbSpline
70
0
71
2
72
6
73
3
74
0
42
0.000000001
43
0.0000000001
44
0.0000000001
40
0
40
0
40
0
40
1
40
1
40
1
10
23.862758251417343
20
312.38946528719129
30
0
10
23.86336246811814
20
312.5947427945697
30
0
10
23.82019444271123
20
312.87346436453544
30
0
0
SPLINE
5
342
100
AcDbEntity
8
0
100
AcDbSpline
70
0
71
2
72
6
73
3
74
0
42
0.000000001
43
0.0000000001
44
0.0000000001
40
0
40
0
40
0
40
1
40
1
40
1
10
23.82019444271123
20
312.87346436453544
30
0
10
23.777069572131282
20
313.16684742151193
30
0
10
23.777630630496311
20
313.35746224979187
30
0
0
SPLINE
5
343
100
AcDbEntity
8
0
100
AcDbSpline
70
0
71
2
72
6
73
3
74
0
42
0.000000001
43
0.0000000001
44
0.0000000001
40
0
40
0
40
0
40
1
40
1
40
1
10
23.777630630496311
20
313.35746224979187
30
0
10
23.779227488919847
20
313.89998137643477
30
0
10
24.088050076793056
20
314.20699190849507
30
0
0
SPLINE
5
344
100
AcDbEntity
8
0
100
AcDbSpline
70
0
71
2
72
6
73
3
74
0
42
0.000000001
43
0.0000000001
44
0.0000000001
40
0
40
0
40
0
40
1
40
1
40
1
10
24.088050076793056
20
314.20699190849507
30
0
10
24.396873260710134
20
314.51400243880096
30
0
10
24.924730304298471
20
314.51244873695879
30
0
0
SPLINE
5
345
100
AcDbEntity
8
0
100
AcDbSpline
70
0
71
2
72
6
73
3
74
0
42
0.000000001
43
0.0000000001
44
0.0000000001
40
0
40
0
40
0
40
1
40
1
40
1
10
24.924730304298471
20
314.51244873695879
30
0
10
25.995106474529742
20
314.50929817669305
30
0
10
25.991653804159228
20
313.33628265672871
30
0
0
SPLINE
5
346
100
AcDbEntity
8
0
100
AcDbSpline
70
0
71
2
72
6
73
3
74
0
42
0.000000001
43
0.0000000001
44
0.0000000001
40
0
40
0
40
0
40
1
40
1
40
1
10
25.991653804159228
20
313.33628265672871
30
0
10
25.990531687429179
20
312.95505300016879
30
0
10
25.945292054887631
20
312.52996358923315
30
0
0
SPLINE
5
347
100
AcDbEntity
8
0
100
AcDbSpline
70
0
71
2
72
6
73
3
74
0
42
0.000000001
43
0.0000000001
44
0.0000000001
40
0
40
0
40
0
40
1
40
1
40
1
10
25.945292054887631
20
312.52996358923315
30
0
10
25.869907059278319
20
311.82637078418605
30
0
10
25.869389155740254
20
311.65041744291682
30
0
0
SPLINE
5
348
100
AcDbEntity
8
0
100
AcDbSpline
70
0
71
2
72
6
73
3
74
0
42
0.000000001
43
0.0000000001
44
0.0000000001
40
0
40
0
40
0
40
1
40
1
40
1
10
25.869389155740254
20
311.65041744291682
30
0
10
25.868914414046774
20
311.48912797283378
30
0
10
25.940846742794381
20
311.01970645000426
30
0
0
SPLINE
5
349
100
AcDbEntity
8
0
100
AcDbSpline
70
0
71
2
72
6
73
3
74
0
42
0.000000001
43
0.0000000001
44
0.0000000001
40
0
40
0
40
0
40
1
40
1
40
1
10
25.940846742794381
20
311.01970645000426
30
0
10
25.9840147717101
20
310.74098607212625
30
0
10
25.983151604994674
20
310.44773249015714
30
0
0
SPLINE
5
350
100
AcDbEntity
8
0
100
AcDbSpline
70
0
71
2
72
6
73
3
74
0
42
0.000000001
43
0.0000000001
44
0.0000000001
40
0
40
0
40
0
40
1
40
1
40
1
10
25.983151604994674
20
310.44773249015714
30
0
10
25.981123159704616
20
309.7585853804419
30
0
10
25.11602449685175
20
309.76113172400682
30
0
0
SPLINE
5
351
100
AcDbEntity
8
0
100
AcDbSpline
70
0
71
2
72
6
73
3
74
0
42
0.000000001
43
0.0000000001
44
0.0000000001
40
0
40
0
40
0
40
1
40
1
40
1
10
25.11602449685175
20
309.76113172400682
30
0
10
24.837433593981061
20
309.76195173238642
30
0
10
24.192404592612373
20
309.80783873821014
30
0
0
SPLINE
5
352
100
AcDbEntity
8
0
100
AcDbSpline
70
0
71
2
72
6
73
3
74
0
42
0.000000001
43
0.0000000001
44
0.0000000001
40
0
40
0
40
0
40
1
40
1
40
1
10
24.192404592612373
20
309.80783873821014
30
0
10
23.122243618016096
20
309.88430269572257
30
0
10
20.776298894758966
20
309.92053339466048
30
0
0
SPLINE
5
353
100
AcDbEntity
8
0
100
AcDbSpline
70
0
71
2
72
6
73
3
74
0
42
0.000000001
43
0.0000000001
44
0.0000000001
40
0
40
0
40
0
40
1
40
1
40
1
10
20.776298894758966
20
309.92053339466048
30
0
10
20.776298894758966
20
309.92053339466048
30
0
10
19.471319262908509
20
309.92437449005297
30
0
0
SPLINE
5
354
100
AcDbEntity
8
0
100
AcDbSpline
70
0
71
2
72
6
73
3
74
0
42
0.000000001
43
0.0000000001
44
0.0000000001
40
0
40
0
40
0
40
1
40
1
40
1
10
19.471319262908509
20
309.92437449005297
30
0
10
18.738184711941763
20
309.9265324085959
30
0
10
18.254186230641483
20
309.88396859813543
30
0
0
LINE
5
355
100
AcDbEntity
8
0
100
AcDbLine
10
18.254186230641483
20
309.88396859813543
30
0
11
17.139519467731546
21
309.78460988103501
31
0
0
SPLINE
5
356
100
AcDbEntity
8
0
100
AcDbSpline
70
0
71
2
72
6
73
3
74
0
42
0.000000001
43
0.0000000001
44
0.0000000001
40
0
40
0
40
0
40
1
40
1
40
1
10
17.139519467731546
20
309.78460988103501
30
0
10
17.124856788633089
20
309.78465303937077
30
0
10
17.080825593001943
20
309.77011983527967
30
0
0
SPLINE
5
357
100
AcDbEntity
8
0
100
AcDbSpline
70
0
71
2
72
6
73
3
74
0
42
0.000000001
43
0.0000000001
44
0.0000000001
40
0
40
0
40
0
40
1
40
1
40
1
10
17.080825593001943
20
309.77011983527967
30
0
10
17.036837406695604
20
309.77024931072555
30
0
10
17.00751204849869
20
309.77033562739712
30
0
0
SPLINE
5
358
100
AcDbEntity
8
0
100
AcDbSpline
70
0
71
2
72
6
73
3
74
0
42
0.000000001
43
0.0000000001
44
0.0000000001
40
0
40
0
40
0
40
1
40
1
40
1
10
17.00751204849869
20
309.77033562739712
30
0
10
16.552968623919089
20
309.77167353690254
30
0
10
16.260621068979201
20
310.08045296556276
30
0
0
SPLINE
5
359
100
AcDbEntity
8
0
100
AcDbSpline
70
0
71
2
72
6
73
3
74
0
42
0.000000001
43
0.0000000001
44
0.0000000001
40
0
40
0
40
0
40
1
40
1
40
1
10
16.260621068979201
20
310.08045296556276
30
0
10
15.982936230390512
20
310.38918923577756
30
0
10
15.984317300644001
20
310.85839615901597
30
0
0
SPLINE
5
360
100
AcDbEntity
8
0
100
AcDbSpline
70
0
71
2
72
6
73
3
74
0
42
0.000000001
43
0.0000000001
44
0.0000000001
40
0
40
0
40
0
40
1
40
1
40
1
10
15.984317300644001
20
310.85839615901597
30
0
10
15.985525734045599
20
311.26895117377279
30
0
10
16.206286115165824
20
311.54689470105865
30
0
0
SPLINE
5
361
100
AcDbEntity
8
0
100
AcDbSpline
70
0
71
2
72
6
73
3
74
0
42
0.000000001
43
0.0000000001
44
0.0000000001
40
0
40
0
40
0
40
1
40
1
40
1
10
16.206286115165824
20
311.54689470105865
30
0
10
16.441709216146055
20
311.82479626198682
30
0
10
16.793613887036454
20
311.82376046083181
30
0
0
SPLINE
5
362
100
AcDbEntity
8
0
100
AcDbSpline
70
0
71
2
72
6
73
3
74
0
42
0.000000001
43
0.0000000001
44
0.0000000001
40
0
40
0
40
0
40
1
40
1
40
1
10
16.793613887036454
20
311.82376046083181
30
0
10
16.910915394329599
20
311.82341519392634
30
0
10
17.145345846569477
20
311.76407275141452
30
0
0
SPLINE
5
363
100
AcDbEntity
8
0
100
AcDbSpline
70
0
71
2
72
6
73
3
74
0
42
0.000000001
43
0.0000000001
44
0.0000000001
40
0
40
0
40
0
40
1
40
1
40
1
10
17.145345846569477
20
311.76407275141452
30
0
10
17.379819535159417
20
311.7193941798696
30
0
10
17.482458288848619
20
311.71909207151919
30
0
0
SPLINE
5
364
100
AcDbEntity
8
0
100
AcDbSpline
70
0
71
2
72
6
73
3
74
0
42
0.000000001
43
0.0000000001
44
0.0000000001
40
0
40
0
40
0
40
1
40
1
40
1
10
17.482458288848619
20
311.71909207151919
30
0
10
17.878351071539875
20
311.7179267951376
30
0
10
17.881285841881127
20
312.71499016592043
30
0
0
LINE
5
365
100
AcDbEntity
8
0
100
AcDbLine
10
17.881285841881127
20
312.71499016592043
30
0
11
17.893240713170599
21
316.77655644850023
31
0
0
SPLINE
5
366
100
AcDbEntity
8
0
100
AcDbSpline
70
0
71
2
72
6
73
3
74
0
42
0.000000001
43
0.0000000001
44
0.0000000001
40
0
40
0
40
0
40
1
40
1
40
1
10
17.893240713170599
20
316.77655644850023
30
0
10
17.896132325176083
20
317.75895714018463
30
0
10
17.500239542484827
20
317.76012241656628
30
0
0
SPLINE
5
367
100
AcDbEntity
8
0
100
AcDbSpline
70
0
71
2
72
6
73
3
74
0
42
0.000000001
43
0.0000000001
44
0.0000000001
40
0
40
0
40
0
40
1
40
1
40
1
10
17.500239542484827
20
317.76012241656628
30
0
10
17.412263467894082
20
317.76038136658087
30
0
10
17.148162312756828
20
317.70250750110813
30
0
0
SPLINE
5
368
100
AcDbEntity
8
0
100
AcDbSpline
70
0
71
2
72
6
73
3
74
0
42
0.000000001
43
0.0000000001
44
0.0000000001
40
0
40
0
40
0
40
1
40
1
40
1
10
17.148162312756828
20
317.70250750110813
30
0
10
16.957417858704197
20
317.65907992657253
30
0
10
16.810790918708655
20
317.65951151036882
30
0
0
SPLINE
5
369
100
AcDbEntity
8
0
100
AcDbSpline
70
0
71
2
72
6
73
3
74
0
42
0.000000001
43
0.0000000001
44
0.0000000001
40
0
40
0
40
0
40
1
40
1
40
1
10
16.810790918708655
20
317.65951151036882
30
0
10
16.473548926916713
20
317.66050415318807
30
0
10
16.239765885211742
20
317.93978618602324
30
0
0
SPLINE
5
370
100
AcDbEntity
8
0
100
AcDbSpline
70
0
71
2
72
6
73
3
74
0
42
0.000000001
43
0.0000000001
44
0.0000000001
40
0
40
0
40
0
40
1
40
1
40
1
10
16.239765885211742
20
317.93978618602324
30
0
10
16.005982804499624
20
318.21906762292417
30
0
10
16.007191239655626
20
318.62962323372483
30
0
0
SPLINE
5
371
100
AcDbEntity
8
0
100
AcDbSpline
70
0
71
2
72
6
73
3
74
0
42
0.000000001
43
0.0000000001
44
0.0000000001
40
0
40
0
40
0
40
1
40
1
40
1
10
16.007191239655626
20
318.62962323372483
30
0
10
16.010341801675736
20
319.69999999999999
30
0
10
17.080718456192646
20
319.69684943830879
30
0
0
SPLINE
5
372
100
AcDbEntity
8
0
100
AcDbSpline
70
0
71
2
72
6
73
3
74
0
42
0.000000001
43
0.0000000001
44
0.0000000001
40
0
40
0
40
0
40
1
40
1
40
1
10
17.080718456192646
20
319.69684943830879
30
0
10
17.32998414987739
20
319.69611574616215
30
0
10
18.092271574708931
20
319.63522079411518
30
0
0
SPLINE
5
373
100
AcDbEntity
8
0
100
AcDbSpline
70
0
71
2
72
6
73
3
74
0
42
0.000000001
43
0.0000000001
44
0.0000000001
40
0
40
0
40
0
40
1
40
1
40
1
10
18.092271574708931
20
319.63522079411518
30
0
10
19.235702635696356
20
319.54387777022021
30
0
10
20.306079401971488
20
319.54072720820011
30
0
0
SPLINE
5
374
100
AcDbEntity
8
0
100
AcDbSpline
70
0
71
2
72
6
73
3
74
0
42
0.000000001
43
0.0000000001
44
0.0000000001
40
0
40
0
40
0
40
1
40
1
40
1
10
20.306079401971488
20
319.54072720820011
30
0
10
20.408718155660694
20
319.5404250998497
30
0
10
22.065731860657781
20
319.57953683686077
30
0
0
SPLINE
5
375
100
AcDbEntity
8
0
100
AcDbSpline
70
0
71
2
72
6
73
3
74
0
42
0.000000001
43
0.0000000001
44
0.0000000001
40
0
40
0
40
0
40
1
40
1
40
1
10
22.065731860657781
20
319.57953683686077
30
0
10
23.268159055490578
20
319.60532320801565
30
0
10
23.649475624765877
20
319.63352644772806
30
0
0
SPLINE
5
376
100
AcDbEntity
8
0
100
AcDbSpline
70
0
71
2
72
6
73
3
74
0
42
0.000000001
43
0.0000000001
44
0.0000000001
40
0
40
0
40
0
40
1
40
1
40
1
10
23.649475624765877
20
319.63352644772806
30
0
10
24.280100897050737
20
319.67565867483086
30
0
10
24.969247410722105
20
319.67363023129519
30
0
0
SPLINE
5
377
100
AcDbEntity
8
0
100
AcDbSpline
70
0
71
2
72
6
73
3
74
0
42
0.000000001
43
0.0000000001
44
0.0000000001
40
0
40
0
40
0
40
1
40
1
40
1
10
24.969247410722105
20
319.67363023129519
30
0
10
25.790358036279599
20
319.6712133627376
30
0
10
25.7882432760724
20
318.95274149086936
30
0
0
SPLINE
5
378
100
AcDbEntity
8
0
100
AcDbSpline
70
0
71
2
72
6
73
3
74
0
42
0.000000001
43
0.0000000001
44
0.0000000001
40
0
40
0
40
0
40
1
40
1
40
1
10
25.7882432760724
20
318.95274149086936
30
0
10
25.787552740945657
20
318.71813802925016
30
0
10
25.727564114388514
20
318.26376701449715
30
0
0
SPLINE
5
379
100
AcDbEntity
8
0
100
AcDbSpline
70
0
71
2
72
6
73
3
74
0
42
0.000000001
43
0.0000000001
44
0.0000000001
40
0
40
0
40
0
40
1
40
1
40
1
10
25.727564114388514
20
318.26376701449715
30
0
10
25.682238168684233
20
317.80935343745233
30
0
10
25.681547633557486
20
317.57474997583313
30
0
0
SPLINE
5
380
100
AcDbEntity
8
0
100
AcDbSpline
70
0
71
2
72
6
73
3
74
0
42
0.000000001
43
0.0000000001
44
0.0000000001
40
0
40
0
40
0
40
1
40
1
40
1
10
25.681547633557486
20
317.57474997583313
30
0
10
25.680857100185147
20
317.34014711025782
30
0
10
25.738213064751434
20
316.90009350791712
30
0
0
SPLINE
5
381
100
AcDbEntity
8
0
100
AcDbSpline
70
0
71
2
72
6
73
3
74
0
42
0.000000001
43
0.0000000001
44
0.0000000001
40
0
40
0
40
0
40
1
40
1
40
1
10
25.738213064751434
20
316.90009350791712
30
0
10
25.810274868506355
20
316.47466002238298
30
0
10
25.809627491715382
20
316.25471923986225
30
0
0
SPLINE
5
382
100
AcDbEntity
8
0
100
AcDbSpline
70
0
71
2
72
6
73
3
74
0
42
0.000000001
43
0.0000000001
44
0.0000000001
40
0
40
0
40
0
40
1
40
1
40
1
10
25.809627491715382
20
316.25471923986225
30
0
10
25.808375899978017
20
315.82950154600701
30
0
10
25.484933791342115
20
315.53719685138094
30
0
0
SPLINE
5
383
100
AcDbEntity
8
0
100
AcDbSpline
70
0
71
2
72
6
73
3
74
0
42
0.000000001
43
0.0000000001
44
0.0000000001
40
0
40
0
40
0
40
1
40
1
40
1
10
25.484933791342115
20
315.53719685138094
30
0
10
25.176153767515217
20
315.24484959621742
30
0
10
24.706947440320711
20
315.24623066471645
30
0
0
SPLINE
5
384
100
AcDbEntity
8
0
100
AcDbSpline
70
0
71
2
72
6
73
3
74
0
42
0.000000001
43
0.0000000001
44
0.0000000001
40
0
40
0
40
0
40
1
40
1
40
1
10
24.706947440320711
20
315.24623066471645
30
0
10
23.607245911892527
20
315.24946754165376
30
0
10
23.61056910550132
20
316.37849442827883
30
0
0
SPLINE
5
385
100
AcDbEntity
8
0
100
AcDbSpline
70
0
71
2
72
6
73
3
74
0
42
0.000000001
43
0.0000000001
44
0.0000000001
40
0
40
0
40
0
40
1
40
1
40
1
10
23.61056910550132
20
316.37849442827883
30
0
10
23.61113016562075
20
316.56910985260265
30
0
10
23.670773523737321
20
316.90617883852406
30
0
0
SPLINE
5
386
100
AcDbEntity
8
0
100
AcDbSpline
70
0
71
2
72
6
73
3
74
0
42
0.000000001
43
0.0000000001
44
0.0000000001
40
0
40
0
40
0
40
1
40
1
40
1
10
23.670773523737321
20
316.90617883852406
30
0
10
23.745079562706749
20
317.24320526215359
30
0
10
23.74555430440023
20
317.40449473223669
30
0
0
SPLINE
5
387
100
AcDbEntity
8
0
100
AcDbSpline
70
0
71
2
72
6
73
3
74
0
42
0.000000001
43
0.0000000001
44
0.0000000001
40
0
40
0
40
0
40
1
40
1
40
1
10
23.74555430440023
20
317.40449473223669
30
0
10
23.746503789541606
20
317.72707426844659
30
0
10
23.409477365912075
20
317.80138030741603
30
0
0
SPLINE
5
388
100
AcDbEntity
8
0
100
AcDbSpline
70
0
71
2
72
6
73
3
74
0
42
0.000000001
43
0.0000000001
44
0.0000000001
40
0
40
0
40
0
40
1
40
1
40
1
10
23.409477365912075
20
317.80138030741603
30
0
10
23.292262249795954
20
317.83105093229909
30
0
10
22.793730564404534
20
317.83251831746975
30
0
0
LINE
5
389
100
AcDbEntity
8
0
100
AcDbLine
10
22.793730564404534
20
317.83251831746975
30
0
11
21.342124141569503
21
317.83679099621992
31
0
0
LINE
5
390
100
AcDbEntity
8
0
100
AcDbLine
10
31.412674644205438
20
316.88339121793842
30
0
11
31.40801354043333
21
315.29982068321726
31
0
0
LINE
5
391
100
AcDbEntity
8
0
100
AcDbLine
10
31.40801354043333
20
315.29982068321726
30
0
11
33.539887616141705
21
317.25836350483769
31
0
0
SPLINE
5
392
100
AcDbEntity
8
0
100
AcDbSpline
70
0
71
2
72
6
73
3
74
0
42
0.000000001
43
0.0000000001
44
0.0000000001
40
0
40
0
40
0
40
1
40
1
40
1
10
33.539887616141712
20
317.25836350483769
30
0
10
34.054463645174536
20
317.72605928677143
30
0
10
34.055111020211115
20
317.94599947324826
30
0
0
SPLINE
5
393
100
AcDbEntity
8
0
100
AcDbSpline
70
0
71
2
72
6
73
3
74
0
42
0.000000001
43
0.0000000001
44
0.0000000001
40
0
40
0
40
0
40
1
40
1
40
1
10
34.055111020211115
20
317.94599947324826
30
0
10
34.055456286897282
20
318.06330090603592
30
0
10
33.996977011758801
20
318.12212425928169
30
0
0
SPLINE
5
394
100
AcDbEntity
8
0
100
AcDbSpline
70
0
71
2
72
6
73
3
74
0
42
0.000000001
43
0.0000000001
44
0.0000000001
40
0
40
0
40
0
40
1
40
1
40
1
10
33.996977011758801
20
318.12212425928169
30
0
10
33.938498928708057
20
318.18094760901857
30
0
10
33.8067506102552
20
318.25465002557667
30
0
0
SPLINE
5
395
100
AcDbEntity
8
0
100
AcDbSpline
70
0
71
2
72
6
73
3
74
0
42
0.000000001
43
0.0000000001
44
0.0000000001
40
0
40
0
40
0
40
1
40
1
40
1
10
33.8067506102552
20
318.25465002557667
30
0
10
33.528763924085304
20
318.46074754133474
30
0
10
33.529756565808043
20
318.79798916059929
30
0
0
SPLINE
5
396
100
AcDbEntity
8
0
100
AcDbSpline
70
0
71
2
72
6
73
3
74
0
42
0.000000001
43
0.0000000001
44
0.0000000001
40
0
40
0
40
0
40
1
40
1
40
1
10
33.529756565808043
20
318.79798916059929
30
0
10
33.530878684292496
20
319.17921941320299
30
0
10
33.795497441437078
20
319.41304542873445
30
0
0
SPLINE
5
397
100
AcDbEntity
8
0
100
AcDbSpline
70
0
71
2
72
6
73
3
74
0
42
0.000000001
43
0.0000000001
44
0.0000000001
40
0
40
0
40
0
40
1
40
1
40
1
10
33.795497441437078
20
319.41304542873445
30
0
10
34.060117392423791
20
319.64687203680097
30
0
10
34.485335086279058
20
319.64562044506357
30
0
0
SPLINE
5
398
100
AcDbEntity
8
0
100
AcDbSpline
70
0
71
2
72
6
73
3
74
0
42
0.000000001
43
0.0000000001
44
0.0000000001
40
0
40
0
40
0
40
1
40
1
40
1
10
34.485335086279058
20
319.64562044506357
30
0
10
34.763925989149755
20
319.64480043668391
30
0
10
35.291567837103102
20
319.56993333759505
30
0
0
SPLINE
5
399
100
AcDbEntity
8
0
100
AcDbSpline
70
0
71
2
72
6
73
3
74
0
42
0.000000001
43
0.0000000001
44
0.0000000001
40
0
40
0
40
0
40
1
40
1
40
1
10
35.291567837103102
20
319.56993333759505
30
0
10
35.833871170312776
20
319.49502248763537
30
0
10
36.112462073183465
20
319.4942024792557
30
0
0
SPLINE
5
400
100
AcDbEntity
8
0
100
AcDbSpline
70
0
71
2
72
6
73
3
74
0
42
0.000000001
43
0.0000000001
44
0.0000000001
40
0
40
0
40
0
40
1
40
1
40
1
10
36.112462073183465
20
319.4942024792557
30
0
10
36.420378334251076
20
319.49329615420453
30
0
10
36.963156412663032
20
319.57967596641561
30
0
0
SPLINE
5
401
100
AcDbEntity
8
0
100
AcDbSpline
70
0
71
2
72
6
73
3
74
0
42
0.000000001
43
0.0000000001
44
0.0000000001
40
0
40
0
40
0
40
1
40
1
40
1
10
36.963156412663032
20
319.57967596641561
30
0
10
37.329898407643022
20
319.63724771739754
30
0
10
37.593826631415254
20
319.63647086735364
30
0
0
SPLINE
5
402
100
AcDbEntity
8
0
100
AcDbSpline
70
0
71
2
72
6
73
3
74
0
42
0.000000001
43
0.0000000001
44
0.0000000001
40
0
40
0
40
0
40
1
40
1
40
1
10
37.593826631415254
20
319.63647086735364
30
0
10
38.077695041664356
20
319.63504664227321
30
0
10
38.355465934400989
20
319.35563513497897
30
0
0
SPLINE
5
403
100
AcDbEntity
8
0
100
AcDbSpline
70
0
71
2
72
6
73
3
74
0
42
0.000000001
43
0.0000000001
44
0.0000000001
40
0
40
0
40
0
40
1
40
1
40
1
10
38.355465934400989
20
319.35563513497897
30
0
10
38.647942666326259
20
319.09084374449134
30
0
10
38.64656159782718
20
318.62163741729682
30
0
0
SPLINE
5
404
100
AcDbEntity
8
0
100
AcDbSpline
70
0
71
2
72
6
73
3
74
0
42
0.000000001
43
0.0000000001
44
0.0000000001
40
0
40
0
40
0
40
1
40
1
40
1
10
38.64656159782718
20
318.62163741729682
30
0
10
38.645310004335407
20
318.19641912739769
30
0
10
38.409800813708891
20
317.88919339970244
30
0
0
SPLINE
5
405
100
AcDbEntity
8
0
100
AcDbSpline
70
0
71
2
72
6
73
3
74
0
42
0.000000001
43
0.0000000001
44
0.0000000001
40
0
40
0
40
0
40
1
40
1
40
1
10
38.409800813708891
20
317.88919339970244
30
0
10
38.188997458762202
20
317.59658659672596
30
0
10
37.881081197694591
20
317.59749292177719
30
0
0
SPLINE
5
406
100
AcDbEntity
8
0
100
AcDbSpline
70
0
71
2
72
6
73
3
74
0
42
0.000000001
43
0.0000000001
44
0.0000000001
40
0
40
0
40
0
40
1
40
1
40
1
10
37.881081197694591
20
317.59749292177719
30
0
10
37.778442444005385
20
317.59779503012754
30
0
10
37.587957092487152
20
317.64234472183182
30
0
0
SPLINE
5
407
100
AcDbEntity
8
0
100
AcDbSpline
70
0
71
2
72
6
73
3
74
0
42
0.000000001
43
0.0000000001
44
0.0000000001
40
0
40
0
40
0
40
1
40
1
40
1
10
37.587957092487152
20
317.64234472183182
30
0
10
37.412177576648745
20
317.70151333825493
30
0
10
37.309538822959546
20
317.70181544660534
30
0
0
SPLINE
5
408
100
AcDbEntity
8
0
100
AcDbSpline
70
0
71
2
72
6
73
3
74
0
42
0.000000001
43
0.0000000001
44
0.0000000001
40
0
40
0
40
0
40
1
40
1
40
1
10
37.309538822959546
20
317.70181544660534
30
0
10
37.133584289602588
20
317.70233335365219
30
0
10
36.810271655974006
20
317.4540166963215
30
0
0
LINE
5
409
100
AcDbEntity
8
0
100
AcDbLine
10
36.810271655974006
20
317.4540166963215
30
0
11
36.545739215500973
21
317.249516038987
31
0
0
LINE
5
410
100
AcDbEntity
8
0
100
AcDbLine
10
36.545739215500973
20
317.249516038987
30
0
11
35.119789688813498
21
316.00737348560898
31
0
0
SPLINE
5
411
100
AcDbEntity
8
0
100
AcDbSpline
70
0
71
2
72
6
73
3
74
0
42
0.000000001
43
0.0000000001
44
0.0000000001
40
0
40
0
40
0
40
1
40
1
40
1
10
35.119789688813498
20
316.00737348560898
30
0
10
34.678787197375307
20
315.62743798307838
30
0
10
34.678312455681819
20
315.46614851299529
30
0
0
SPLINE
5
412
100
AcDbEntity
8
0
100
AcDbSpline
70
0
71
2
72
6
73
3
74
0
42
0.000000001
43
0.0000000001
44
0.0000000001
40
0
40
0
40
0
40
1
40
1
40
1
10
34.678312455681819
20
315.46614851299529
30
0
10
34.678053505667201
20
315.37817243840459
30
0
10
34.838522965616164
20
315.09910619779652
30
0
0
LINE
5
413
100
AcDbEntity
8
0
100
AcDbLine
10
34.838522965616164
20
315.09910619779652
30
0
11
35.217767338730589
21
314.42350084253741
31
0
0
LINE
5
414
100
AcDbEntity
8
0
100
AcDbLine
10
35.217767338730589
20
314.42350084253741
30
0
11
36.253596581162867
21
312.64625004210006
31
0
0
SPLINE
5
415
100
AcDbEntity
8
0
100
AcDbSpline
70
0
71
2
72
6
73
3
74
0
42
0.000000001
43
0.0000000001
44
0.0000000001
40
0
40
0
40
0
40
1
40
1
40
1
10
36.253596581162867
20
312.64625004210006
30
0
10
36.822549453997233
20
311.66216617532052
30
0
10
37.159793457437218
20
311.66117352658023
30
0
0
SPLINE
5
416
100
AcDbEntity
8
0
100
AcDbSpline
70
0
71
2
72
6
73
3
74
0
42
0.000000001
43
0.0000000001
44
0.0000000001
40
0
40
0
40
0
40
1
40
1
40
1
10
37.159793457437218
20
311.66117352658023
30
0
10
37.247769532027966
20
311.66091457656557
30
0
10
37.453176514413677
20
311.70429839716013
30
0
0
SPLINE
5
417
100
AcDbEntity
8
0
100
AcDbSpline
70
0
71
2
72
6
73
3
74
0
42
0.000000001
43
0.0000000001
44
0.0000000001
40
0
40
0
40
0
40
1
40
1
40
1
10
37.453176514413677
20
311.70429839716013
30
0
10
37.673289337742439
20
311.76230293060513
30
0
10
37.790590770530102
20
311.76195766391896
30
0
0
SPLINE
5
418
100
AcDbEntity
8
0
100
AcDbSpline
70
0
71
2
72
6
73
3
74
0
42
0.000000001
43
0.0000000001
44
0.0000000001
40
0
40
0
40
0
40
1
40
1
40
1
10
37.790590770530102
20
311.76195766391896
30
0
10
38.582375441846807
20
311.7596271137873
30
0
10
38.579526988177093
20
310.79188910120138
30
0
0
SPLINE
5
419
100
AcDbEntity
8
0
100
AcDbSpline
70
0
71
2
72
6
73
3
74
0
42
0.000000001
43
0.0000000001
44
0.0000000001
40
0
40
0
40
0
40
1
40
1
40
1
10
38.579526988177093
20
310.79188910120138
30
0
10
38.578102759587836
20
310.30801949886455
30
0
10
38.283986010903263
20
310.01562908361086
30
0
0
SPLINE
5
420
100
AcDbEntity
8
0
100
AcDbSpline
70
0
71
2
72
6
73
3
74
0
42
0.000000001
43
0.0000000001
44
0.0000000001
40
0
40
0
40
0
40
1
40
1
40
1
10
38.283986010903263
20
310.01562908361086
30
0
10
37.989869262218683
20
309.72323866835711
30
0
10
37.506000851969581
20
309.72466289343754
30
0
0
SPLINE
5
421
100
AcDbEntity
8
0
100
AcDbSpline
70
0
71
2
72
6
73
3
74
0
42
0.000000001
43
0.0000000001
44
0.0000000001
40
0
40
0
40
0
40
1
40
1
40
1
10
37.506000851969581
20
309.72466289343754
30
0
10
37.227409949098885
20
309.7254829018172
30
0
10
36.846350541706613
20
309.78525574195874
30
0
0
SPLINE
5
422
100
AcDbEntity
8
0
100
AcDbSpline
70
0
71
2
72
6
73
3
74
0
42
0.000000001
43
0.0000000001
44
0.0000000001
40
0
40
0
40
0
40
1
40
1
40
1
10
36.846350541706613
20
309.78525574195874
30
0
10
36.274765006881395
20
309.87491499164452
30
0
10
35.820221954829215
20
309.87625290005343
30
0
0
SPLINE
5
423
100
AcDbEntity
8
0
100
AcDbSpline
70
0
71
2
72
6
73
3
74
0
42
0.000000001
43
0.0000000001
44
0.0000000001
40
0
40
0
40
0
40
1
40
1
40
1
10
35.820221954829215
20
309.87625290005343
30
0
10
35.556293731056975
20
309.87702975009734
30
0
10
35.028220299745911
20
309.80527005820159
30
0
0
SPLINE
5
424
100
AcDbEntity
8
0
100
AcDbSpline
70
0
71
2
72
6
73
3
74
0
42
0.000000001
43
0.0000000001
44
0.0000000001
40
0
40
0
40
0
40
1
40
1
40
1
10
35.028220299745911
20
309.80527005820159
30
0
10
34.514810739621041
20
309.73346720446136
30
0
10
34.250882515848808
20
309.73424405450521
30
0
0
SPLINE
5
425
100
AcDbEntity
8
0
100
AcDbSpline
70
0
71
2
72
6
73
3
74
0
42
0.000000001
43
0.0000000001
44
0.0000000001
40
0
40
0
40
0
40
1
40
1
40
1
10
34.250882515848808
20
309.73424405450521
30
0
10
33.869651667201175
20
309.73536617474406
30
0
10
33.606413976801278
20
309.97074589036328
30
0
0
SPLINE
5
426
100
AcDbEntity
8
0
100
AcDbSpline
70
0
71
2
72
6
73
3
74
0
42
0.000000001
43
0.0000000001
44
0.0000000001
40
0
40
0
40
0
40
1
40
1
40
1
10
33.606413976801278
20
309.97074589036328
30
0
10
33.343176286401388
20
310.20612560598249
30
0
10
33.344212089968707
20
310.55803109643318
30
0
0
SPLINE
5
427
100
AcDbEntity
8
0
100
AcDbSpline
70
0
71
2
72
6
73
3
74
0
42
0.000000001
43
0.0000000001
44
0.0000000001
40
0
40
0
40
0
40
1
40
1
40
1
10
33.344212089968707
20
310.55803109643318
30
0
10
33.345204731691439
20
310.89527271569773
30
0
10
33.756752388170995
20
311.23130590156063
30
0
0
SPLINE
5
428
100
AcDbEntity
8
0
100
AcDbSpline
70
0
71
2
72
6
73
3
74
0
42
0.000000001
43
0.0000000001
44
0.0000000001
40
0
40
0
40
0
40
1
40
1
40
1
10
33.756752388170995
20
311.23130590156063
30
0
10
33.947798799808659
20
311.37737163418018
30
0
10
33.94831669983791
20
311.55332378336169
30
0
0
SPLINE
5
429
100
AcDbEntity
8
0
100
AcDbSpline
70
0
71
2
72
6
73
3
74
0
42
0.000000001
43
0.0000000001
44
0.0000000001
40
0
40
0
40
0
40
1
40
1
40
1
10
33.94831669983791
20
311.55332378336169
30
0
10
33.948791441531398
20
311.71461325344472
30
0
10
33.715397012866475
20
312.12585999366161
30
0
0
LINE
5
430
100
AcDbEntity
8
0
100
AcDbLine
10
33.715397012866475
20
312.12585999366161
30
0
11
32.942245591047993
21
313.4771150546033
31
0
0
SPLINE
5
431
100
AcDbEntity
8
0
100
AcDbSpline
70
0
71
2
72
6
73
3
74
0
42
0.000000001
43
0.0000000001
44
0.0000000001
40
0
40
0
40
0
40
1
40
1
40
1
10
32.942245591047993
20
313.4771150546033
30
0
10
32.679697241932708
20
313.94709763930666
30
0
10
32.577058488243502
20
313.94739974765707
30
0
0
SPLINE
5
432
100
AcDbEntity
8
0
100
AcDbSpline
70
0
71
2
72
6
73
3
74
0
42
0.000000001
43
0.0000000001
44
0.0000000001
40
0
40
0
40
0
40
1
40
1
40
1
10
32.577058488243502
20
313.94739974765707
30
0
10
32.489082413652753
20
313.94765869767167
30
0
10
32.415553226481613
20
313.87456109385823
30
0
0
LINE
5
433
100
AcDbEntity
8
0
100
AcDbLine
10
32.415553226481613
20
313.87456109385823
30
0
11
32.268494852139327
21
313.72836588623136
31
0
0
LINE
5
434
100
AcDbEntity
8
0
100
AcDbLine
10
32.268494852139327
20
313.72836588623136
30
0
11
31.401280834789805
21
313.01244095572628
31
0
0
LINE
5
435
100
AcDbEntity
8
0
100
AcDbLine
10
31.401280834789802
20
313.01244095572628
30
0
11
31.399813447864769
21
312.51390867429097
31
0
0
SPLINE
5
436
100
AcDbEntity
8
0
100
AcDbSpline
70
0
71
2
72
6
73
3
74
0
42
0.000000001
43
0.0000000001
44
0.0000000001
40
0
40
0
40
0
40
1
40
1
40
1
10
31.399813447864773
20
312.51390867429097
30
0
10
31.398346064448546
20
312.01537758494345
30
0
10
31.398302906112775
20
312.00071490584497
30
0
0
SPLINE
5
437
100
AcDbEntity
8
0
100
AcDbSpline
70
0
71
2
72
6
73
3
74
0
42
0.000000001
43
0.0000000001
44
0.0000000001
40
0
40
0
40
0
40
1
40
1
40
1
10
31.398302906112775
20
312.00071490584497
30
0
10
31.441384614848147
20
311.69266797768228
30
0
10
31.69065135160966
20
311.69193428246541
30
0
0
SPLINE
5
438
100
AcDbEntity
8
0
100
AcDbSpline
70
0
71
2
72
6
73
3
74
0
42
0.000000001
43
0.0000000001
44
0.0000000001
40
0
40
0
40
0
40
1
40
1
40
1
10
31.69065135160966
20
311.69193428246541
30
0
10
31.705314030708113
20
311.6918911241296
30
0
10
31.764007905437719
20
311.70638116988499
30
0
0
SPLINE
5
439
100
AcDbEntity
8
0
100
AcDbSpline
70
0
71
2
72
6
73
3
74
0
42
0.000000001
43
0.0000000001
44
0.0000000001
40
0
40
0
40
0
40
1
40
1
40
1
10
31.764007905437719
20
311.70638116988499
30
0
10
31.822658621831543
20
311.70620853654191
30
0
10
31.851983980028464
20
311.70612221987034
30
0
0
SPLINE
5
440
100
AcDbEntity
8
0
100
AcDbSpline
70
0
71
2
72
6
73
3
74
0
42
0.000000001
43
0.0000000001
44
0.0000000001
40
0
40
0
40
0
40
1
40
1
40
1
10
31.851983980028464
20
311.70612221987034
30
0
10
31.896015175659606
20
311.72065542396149
30
0
10
31.983991250250348
20
311.72039647394689
30
0
0
SPLINE
5
441
100
AcDbEntity
8
0
100
AcDbSpline
70
0
71
2
72
6
73
3
74
0
42
0.000000001
43
0.0000000001
44
0.0000000001
40
0
40
0
40
0
40
1
40
1
40
1
10
31.983991250250348
20
311.72039647394689
30
0
10
32.629149130582483
20
311.71849750717291
30
0
10
32.626473313764663
20
310.80941140306857
30
0
0
SPLINE
5
442
100
AcDbEntity
8
0
100
AcDbSpline
70
0
71
2
72
6
73
3
74
0
42
0.000000001
43
0.0000000001
44
0.0000000001
40
0
40
0
40
0
40
1
40
1
40
1
10
32.626473313764663
20
310.80941140306857
30
0
10
32.625049085175405
20
310.32554180073174
30
0
10
32.360257694687739
20
310.03306506880648
30
0
0
SPLINE
5
443
100
AcDbEntity
8
0
100
AcDbSpline
70
0
71
2
72
6
73
3
74
0
42
0.000000001
43
0.0000000001
44
0.0000000001
40
0
40
0
40
0
40
1
40
1
40
1
10
32.360257694687739
20
310.03306506880648
30
0
10
32.09546630420008
20
309.74058833688122
30
0
10
31.640923252147893
20
309.74192624529007
30
0
0
SPLINE
5
444
100
AcDbEntity
8
0
100
AcDbSpline
70
0
71
2
72
6
73
3
74
0
42
0.000000001
43
0.0000000001
44
0.0000000001
40
0
40
0
40
0
40
1
40
1
40
1
10
31.640923252147893
20
309.74192624529007
30
0
10
31.435644552681758
20
309.74253046549973
30
0
10
31.039924850366489
20
309.80234645695936
30
0
0
SPLINE
5
445
100
AcDbEntity
8
0
100
AcDbSpline
70
0
71
2
72
6
73
3
74
0
42
0.000000001
43
0.0000000001
44
0.0000000001
40
0
40
0
40
0
40
1
40
1
40
1
10
31.039924850366489
20
309.80234645695936
30
0
10
30.585554431657389
20
309.86233508176213
30
0
10
30.424308119910126
20
309.87747250255404
30
0
0
SPLINE
5
446
100
AcDbEntity
8
0
100
AcDbSpline
70
0
71
2
72
6
73
3
74
0
42
0.000000001
43
0.0000000001
44
0.0000000001
40
0
40
0
40
0
40
1
40
1
40
1
10
30.424308119910126
20
309.87747250255404
30
0
10
30.204409899681302
20
309.89278256019793
30
0
10
29.911156317712155
20
309.89364572691335
30
0
0
SPLINE
5
447
100
AcDbEntity
8
0
100
AcDbSpline
70
0
71
2
72
6
73
3
74
0
42
0.000000001
43
0.0000000001
44
0.0000000001
40
0
40
0
40
0
40
1
40
1
40
1
10
29.911156317712155
20
309.89364572691335
30
0
10
29.573914698447624
20
309.89463836863604
30
0
10
28.928539834348904
20
309.82322394342651
30
0
0
SPLINE
5
448
100
AcDbEntity
8
0
100
AcDbSpline
70
0
71
2
72
6
73
3
74
0
42
0.000000001
43
0.0000000001
44
0.0000000001
40
0
40
0
40
0
40
1
40
1
40
1
10
28.928539834348904
20
309.82322394342651
30
0
10
28.29782884143637
20
309.7517663563724
30
0
10
27.975249901270306
20
309.75271583975933
30
0
0
SPLINE
5
449
100
AcDbEntity
8
0
100
AcDbSpline
70
0
71
2
72
6
73
3
74
0
42
0.000000001
43
0.0000000001
44
0.0000000001
40
0
40
0
40
0
40
1
40
1
40
1
10
27.975249901270306
20
309.75271583975933
30
0
10
27.506042978031932
20
309.75409691001283
30
0
10
27.213652562778208
20
310.04821365869748
30
0
0
SPLINE
5
450
100
AcDbEntity
8
0
100
AcDbSpline
70
0
71
2
72
6
73
3
74
0
42
0.000000001
43
0.0000000001
44
0.0000000001
40
0
40
0
40
0
40
1
40
1
40
1
10
27.213652562778208
20
310.04821365869748
30
0
10
26.921262147524484
20
310.34233040738201
30
0
10
26.922686376113742
20
310.82620000971883
30
0
0
SPLINE
5
451
100
AcDbEntity
8
0
100
AcDbSpline
70
0
71
2
72
6
73
3
74
0
42
0.000000001
43
0.0000000001
44
0.0000000001
40
0
40
0
40
0
40
1
40
1
40
1
10
26.922686376113742
20
310.82620000971883
30
0
10
26.92393796785111
20
311.25141770357413
30
0
10
27.144655004371856
20
311.51469855230977
30
0
0
SPLINE
5
452
100
AcDbEntity
8
0
100
AcDbSpline
70
0
71
2
72
6
73
3
74
0
42
0.000000001
43
0.0000000001
44
0.0000000001
40
0
40
0
40
0
40
1
40
1
40
1
10
27.144655004371856
20
311.51469855230977
30
0
10
27.380077881835639
20
311.7926001138959
30
0
10
27.731982180198621
20
311.79156431383734
30
0
0
SPLINE
5
453
100
AcDbEntity
8
0
100
AcDbSpline
70
0
71
2
72
6
73
3
74
0
42
0.000000001
43
0.0000000001
44
0.0000000001
40
0
40
0
40
0
40
1
40
1
40
1
10
27.731982180198621
20
311.79156431383734
30
0
10
27.849284805074014
20
311.7912190436424
30
0
10
28.069052354698982
20
311.73191976012424
30
0
0
SPLINE
5
454
100
AcDbEntity
8
0
100
AcDbSpline
70
0
71
2
72
6
73
3
74
0
42
0.000000001
43
0.0000000001
44
0.0000000001
40
0
40
0
40
0
40
1
40
1
40
1
10
28.069052354698982
20
311.73191976012424
30
0
10
28.303525745266992
20
311.68724118945653
30
0
10
28.420827178054651
20
311.68689592277036
30
0
0
SPLINE
5
455
100
AcDbEntity
8
0
100
AcDbSpline
70
0
71
2
72
6
73
3
74
0
42
0.000000001
43
0.0000000001
44
0.0000000001
40
0
40
0
40
0
40
1
40
1
40
1
10
28.420827178054651
20
311.68689592277036
30
0
10
28.816719513713007
20
311.68573064770453
30
0
10
28.819654284054259
20
312.68279401848736
30
0
0
LINE
5
456
100
AcDbEntity
8
0
100
AcDbLine
10
28.819654284054259
20
312.68279401848736
30
0
11
28.831609155343727
21
316.74436030106722
31
0
0
SPLINE
5
457
100
AcDbEntity
8
0
100
AcDbSpline
70
0
71
2
72
6
73
3
74
0
42
0.000000001
43
0.0000000001
44
0.0000000001
40
0
40
0
40
0
40
1
40
1
40
1
10
28.831609155343727
20
316.74436030106722
30
0
10
28.832990223842817
20
317.21356662826173
30
0
10
28.804053290667841
20
317.34561705681938
30
0
0
SPLINE
5
458
100
AcDbEntity
8
0
100
AcDbSpline
70
0
71
2
72
6
73
3
74
0
42
0.000000001
43
0.0000000001
44
0.0000000001
40
0
40
0
40
0
40
1
40
1
40
1
10
28.804053290667841
20
317.34561705681938
30
0
10
28.731862013660013
20
317.72706310110198
30
0
10
28.438608431690859
20
317.7279262678174
30
0
0
SPLINE
5
459
100
AcDbEntity
8
0
100
AcDbSpline
70
0
71
2
72
6
73
3
74
0
42
0.000000001
43
0.0000000001
44
0.0000000001
40
0
40
0
40
0
40
1
40
1
40
1
10
28.438608431690859
20
317.7279262678174
30
0
10
28.321306998903204
20
317.72827153450356
30
0
10
28.086531499984794
20
317.6703113514821
30
0
0
SPLINE
5
460
100
AcDbEntity
8
0
100
AcDbSpline
70
0
71
2
72
6
73
3
74
0
42
0.000000001
43
0.0000000001
44
0.0000000001
40
0
40
0
40
0
40
1
40
1
40
1
10
28.086531499984794
20
317.6703113514821
30
0
10
27.866461836746215
20
317.62697009317941
30
0
10
27.734496532772361
20
317.62735852171016
30
0
0
SPLINE
5
461
100
AcDbEntity
8
0
100
AcDbSpline
70
0
71
2
72
6
73
3
74
0
42
0.000000001
43
0.0000000001
44
0.0000000001
40
0
40
0
40
0
40
1
40
1
40
1
10
27.734496532772361
20
317.62735852171016
30
0
10
27.39725491350784
20
317.62835116343291
30
0
10
27.163472058066578
20
317.90763319571977
30
0
0
SPLINE
5
462
100
AcDbEntity
8
0
100
AcDbSpline
70
0
71
2
72
6
73
3
74
0
42
0.000000001
43
0.0000000001
44
0.0000000001
40
0
40
0
40
0
40
1
40
1
40
1
10
27.163472058066578
20
317.90763319571977
30
0
10
26.944351879969368
20
318.18687147362704
30
0
10
26.94556031512537
20
318.59742708442775
30
0
0
SPLINE
5
463
100
AcDbEntity
8
0
100
AcDbSpline
70
0
71
2
72
6
73
3
74
0
42
0.000000001
43
0.0000000001
44
0.0000000001
40
0
40
0
40
0
40
1
40
1
40
1
10
26.94556031512537
20
318.59742708442775
30
0
10
26.947027700295997
20
319.09595876981916
30
0
10
27.226438611546342
20
319.37372966431019
30
0
0
SPLINE
5
464
100
AcDbEntity
8
0
100
AcDbSpline
70
0
71
2
72
6
73
3
74
0
42
0.000000001
43
0.0000000001
44
0.0000000001
40
0
40
0
40
0
40
1
40
1
40
1
10
27.226438611546342
20
319.37372966431019
30
0
10
27.520555361985323
20
319.66612067560783
30
0
10
28.004424964322155
20
319.66469644701851
30
0
0
SPLINE
5
465
100
AcDbEntity
8
0
100
AcDbSpline
70
0
71
2
72
6
73
3
74
0
42
0.000000001
43
0.0000000001
44
0.0000000001
40
0
40
0
40
0
40
1
40
1
40
1
10
28.004424964322155
20
319.66469644701851
30
0
10
28.327003904488222
20
319.66374696363158
30
0
10
28.986608672239953
20
319.58849144302957
30
0
0
SPLINE
5
466
100
AcDbEntity
8
0
100
AcDbSpline
70
0
71
2
72
6
73
3
74
0
42
0.000000001
43
0.0000000001
44
0.0000000001
40
0
40
0
40
0
40
1
40
1
40
1
10
28.986608672239953
20
319.58849144302957
30
0
10
29.660877309423476
20
319.51319216453913
30
0
10
30.012781607786458
20
319.51215636448063
30
0
0
SPLINE
5
467
100
AcDbEntity
8
0
100
AcDbSpline
70
0
71
2
72
6
73
3
74
0
42
0.000000001
43
0.0000000001
44
0.0000000001
40
0
40
0
40
0
40
1
40
1
40
1
10
30.012781607786458
20
319.51215636448063
30
0
10
30.291373702744878
20
319.51133635259214
30
0
10
30.848771301919527
20
319.58301032736904
30
0
0
SPLINE
5
468
100
AcDbEntity
8
0
100
AcDbSpline
70
0
71
2
72
6
73
3
74
0
42
0.000000001
43
0.0000000001
44
0.0000000001
40
0
40
0
40
0
40
1
40
1
40
1
10
30.848771301919527
20
319.58301032736904
30
0
10
31.406168899339775
20
319.65468370610199
30
0
10
31.684760994298202
20
319.65386369421356
30
0
0
SPLINE
5
469
100
AcDbEntity
8
0
100
AcDbSpline
70
0
71
2
72
6
73
3
74
0
42
0.000000001
43
0.0000000001
44
0.0000000001
40
0
40
0
40
0
40
1
40
1
40
1
10
31.684760994298202
20
319.65386369421356
30
0
10
32.124641367251925
20
319.6525689441404
30
0
10
32.387706422554331
20
319.35853791608349
30
0
0
SPLINE
5
470
100
AcDbEntity
8
0
100
AcDbSpline
70
0
71
2
72
6
73
3
74
0
42
0.000000001
43
0.0000000001
44
0.0000000001
40
0
40
0
40
0
40
1
40
1
40
1
10
32.387706422554331
20
319.35853791608349
30
0
10
32.650771479611144
20
319.06450748407048
30
0
10
32.649304094440517
20
318.56597579867901
30
0
0
SPLINE
5
471
100
AcDbEntity
8
0
100
AcDbSpline
70
0
71
2
72
6
73
3
74
0
42
0.000000001
43
0.0000000001
44
0.0000000001
40
0
40
0
40
0
40
1
40
1
40
1
10
32.649304094440517
20
318.56597579867901
30
0
10
32.646714592539837
20
317.68621445672773
30
0
10
32.001556712207702
20
317.68811342350165
30
0
0
LINE
5
472
100
AcDbEntity
8
0
100
AcDbLine
10
32.001556712207702
20
317.68811342350165
30
0
11
31.869592600321582
21
317.68850184852357
31
0
0
SPLINE
5
473
100
AcDbEntity
8
0
100
AcDbSpline
70
0
71
2
72
6
73
3
74
0
42
0.000000001
43
0.0000000001
44
0.0000000001
40
0
40
0
40
0
40
1
40
1
40
1
10
31.869592600321582
20
317.68850184852357
30
0
10
31.810985042263525
20
317.70333716096513
30
0
10
31.693683609475869
20
317.7036824276513
30
0
0
SPLINE
5
474
100
AcDbEntity
8
0
100
AcDbSpline
70
0
71
2
72
6
73
3
74
0
42
0.000000001
43
0.0000000001
44
0.0000000001
40
0
40
0
40
0
40
1
40
1
40
1
10
31.693683609475869
20
317.7036824276513
30
0
10
31.45907955181281
20
317.70437296453247
30
0
10
31.414185187711841
20
317.39658558242826
30
0
0
SPLINE
5
475
100
AcDbEntity
8
0
100
AcDbSpline
70
0
71
2
72
6
73
3
74
0
42
0.000000001
43
0.0000000001
44
0.0000000001
40
0
40
0
40
0
40
1
40
1
40
1
10
31.414185187711841
20
317.39658558242826
30
0
10
31.414142029376066
20
317.38192290332984
30
0
10
31.412674644205438
20
316.88339121793842
30
0
0
ENDSEC
0
SECTION
2
OBJECTS
0
DICTIONARY
5
C
100
AcDbDictionary
3
ACAD_GROUP
350
D
3
ACAD_MLINESTYLE
350
17
0
DICTIONARY
5
D
100
AcDbDictionary
0
DICTIONARY
5
1A
330
C
100
AcDbDictionary
0
DICTIONARY
5
17
100
AcDbDictionary
0
ENDSEC
0
EOF
